<svg width="55" height="61" viewBox="0 0 55 61" fill="none" xmlns="http://www.w3.org/2000/svg">
<circle cx="23.913" cy="37.0449" r="21.663" stroke="#465ECB" stroke-width="4.5"/>
<path d="M34.248 0.0126953C41.0089 5.76634 46.059 11.1098 49.3975 16.0439C52.7369 20.9796 54.4053 25.5473 54.4053 29.7461C54.4052 35.6255 52.4838 40.5381 48.6416 44.4854C44.7994 48.4326 40.0022 50.4072 34.249 50.4072C28.4957 50.4072 23.6978 48.4327 19.8555 44.4854C16.0134 40.5381 14.0919 35.6254 14.0918 29.7461C14.0918 25.5473 15.7611 20.9796 19.1006 16.0439C22.4389 11.11 27.4877 5.76598 34.248 0.0126953ZM21.4629 28.9609C21.4603 28.9659 21.4606 28.9714 21.4619 28.9746C21.4633 28.9779 21.4662 28.9813 21.4688 28.9844C21.4741 28.9908 21.483 28.9986 21.4941 29.0078C21.5036 29.0157 21.5134 29.0302 21.5234 29.0508C21.5334 29.0714 21.5433 29.0978 21.5527 29.1299C21.5719 29.1948 21.5899 29.2824 21.6064 29.3887C21.6395 29.6011 21.6677 29.8894 21.6914 30.2285C21.7387 30.9069 21.769 31.7886 21.791 32.6758C21.813 33.5632 21.8266 34.4565 21.8398 35.1562C21.8465 35.506 21.8528 35.8075 21.8604 36.0361C21.8679 36.2641 21.8761 36.4206 21.8867 36.4795C21.95 36.8329 22.0829 37.1008 22.2715 37.2998C22.46 37.4988 22.7041 37.6283 22.9873 37.708C23.5533 37.8671 24.2796 37.8262 25.0488 37.7305C25.819 37.6346 26.6318 37.4842 27.374 37.4248C28.1163 37.3655 28.7852 37.3978 29.2656 37.6641C29.505 37.7969 29.6577 37.9691 29.7451 38.1689C29.8326 38.3692 29.8549 38.5982 29.833 38.8428C29.7891 39.3323 29.5683 39.8844 29.3398 40.4004C29.2258 40.658 29.1098 40.9069 29.0137 41.1338C28.9176 41.3606 28.841 41.5665 28.8057 41.7383C28.7705 41.9095 28.7755 42.05 28.8467 42.1436C28.9184 42.2376 29.0543 42.2814 29.2705 42.2656C29.2873 42.2644 29.3155 42.2676 29.3545 42.2764C29.393 42.285 29.4413 42.2989 29.499 42.3164C29.6148 42.3516 29.7675 42.4032 29.9502 42.4668C30.3159 42.5941 30.8036 42.7691 31.3623 42.9521C32.4795 43.3181 33.8834 43.7189 35.1758 43.8457C35.6635 43.8936 36.136 43.9013 36.5713 43.8545C37.1444 44.0264 37.7881 44.2024 38.4326 44.3604C39.6434 44.6571 40.8559 44.8982 41.6006 44.9619C41.7868 44.9779 41.9446 44.9827 42.0654 44.9746C42.1257 44.9706 42.1772 44.963 42.2188 44.9521C42.2602 44.9413 42.293 44.9266 42.3145 44.9072C42.3363 44.8875 42.3461 44.8628 42.3428 44.834C42.3394 44.8058 42.3231 44.7744 42.2949 44.7402C42.2383 44.6717 42.1303 44.5868 41.9648 44.4844C41.3026 44.0744 40.0768 43.4833 38.6006 42.7686C38.5912 42.764 38.5817 42.7595 38.5723 42.7549C39.0127 41.9991 39.0513 40.8038 38.4551 38.9863C38.4623 38.9313 38.4489 38.8831 38.4072 38.8438L38.3916 38.8535C38.4068 38.8983 38.4201 38.9433 38.4346 38.9873C38.4332 38.9967 38.4325 39.0066 38.4297 39.0166C38.4115 39.0818 38.3651 39.1582 38.2979 39.2422C38.1633 39.4103 37.9484 39.6083 37.7207 39.8135C37.4934 40.0184 37.2532 40.2305 37.0703 40.4287C36.979 40.5277 36.9014 40.6233 36.8467 40.7129C36.7921 40.8025 36.7598 40.8877 36.7598 40.9639C36.7597 41.2603 36.6955 41.5301 36.5713 41.7754C35.6426 41.3144 34.6753 40.8229 33.7285 40.3076C32.0612 39.4001 30.4549 38.4239 29.2207 37.4365C28.6036 36.9429 28.0792 36.4463 27.6875 35.9541C27.2959 35.462 27.0371 34.9746 26.9482 34.499C26.9449 34.4835 26.9476 34.4646 26.958 34.4424C26.9684 34.4202 26.986 34.3948 27.0098 34.3672C27.0573 34.3121 27.1297 34.2485 27.2197 34.1768C27.4002 34.033 27.6509 33.8598 27.917 33.6689C28.1829 33.4783 28.4639 33.2696 28.7041 33.0557C28.944 32.8419 29.1438 32.6218 29.2471 32.4072C29.2987 32.2999 29.3263 32.1936 29.3223 32.0898C29.3182 31.9859 29.2823 31.8848 29.208 31.7891C29.0597 31.5983 28.7591 31.4273 28.2529 31.2871C27.384 31.0466 25.9044 30.8954 23.5352 30.8916C24.5128 30.8422 25.1172 30.7353 25.4561 30.6025C25.5726 30.5569 25.6579 30.5075 25.7168 30.457C25.7757 30.4065 25.8086 30.3536 25.8174 30.2998C25.8347 30.1922 25.7563 30.0875 25.6279 29.998C25.3698 29.8184 24.8934 29.6875 24.4814 29.6973C24.2752 29.7022 24.0835 29.7422 23.9434 29.8301C23.8278 29.9026 23.7486 30.0081 23.7236 30.1514C23.6795 30.112 23.612 30.0608 23.5264 30.0049C23.3112 29.8645 22.9853 29.6804 22.6562 29.5059C22.3269 29.3312 21.9938 29.166 21.7656 29.0625C21.6518 29.0109 21.5635 28.9743 21.5146 28.96C21.5025 28.9564 21.4922 28.9539 21.4844 28.9531C21.4807 28.9528 21.477 28.9525 21.4736 28.9531C21.4704 28.9538 21.4656 28.9561 21.4629 28.9609ZM38.5918 42.7871C40.0684 43.502 41.2929 44.0917 41.9541 44.501C42.1194 44.6033 42.2248 44.687 42.2793 44.7529C42.3065 44.7859 42.3205 44.8132 42.3232 44.8359C42.3259 44.8579 42.3184 44.8767 42.3008 44.8926C42.2827 44.9088 42.2537 44.9221 42.2139 44.9326C42.1738 44.9431 42.1232 44.9501 42.0635 44.9541C41.9441 44.9621 41.7881 44.9573 41.6025 44.9414C40.8595 44.8778 39.648 44.6385 38.4375 44.3418C37.8086 44.1877 37.1804 44.0163 36.6182 43.8486C37.3157 43.7666 37.9153 43.5394 38.3252 43.0938C38.414 42.9973 38.4925 42.8899 38.5625 42.7725C38.5723 42.7772 38.582 42.7824 38.5918 42.7871ZM21.5088 28.9785C21.5562 28.9924 21.6438 29.0284 21.7578 29.0801C21.9854 29.1833 22.3175 29.3489 22.6465 29.5234C22.9755 29.6979 23.3012 29.8816 23.5156 30.0215C23.6074 30.0814 23.6778 30.1338 23.7197 30.1729C23.7165 30.1975 23.7139 30.2232 23.7139 30.25H23.7246V30.2598C23.7393 30.2597 23.7514 30.2583 23.7607 30.2549C23.7703 30.2513 23.7785 30.245 23.7812 30.2354C23.7837 30.2264 23.7809 30.2169 23.7764 30.208C23.7716 30.1988 23.7637 30.1884 23.7539 30.1777C23.7501 30.1736 23.7448 30.1704 23.7402 30.166C23.7619 30.0227 23.8401 29.9193 23.9541 29.8477C24.0899 29.7624 24.2771 29.7217 24.4814 29.7168C24.8904 29.7071 25.3632 29.8377 25.6172 30.0146C25.7446 30.1035 25.8134 30.2015 25.7979 30.2969C25.79 30.3447 25.7606 30.3938 25.7041 30.4424C25.6476 30.4909 25.5643 30.5389 25.4492 30.584C24.9873 30.7649 24.0233 30.9014 22.2744 30.9014L22.2754 30.9219C25.3945 30.8668 27.2363 31.0269 28.2471 31.3066C28.7527 31.4466 29.0482 31.616 29.1924 31.8018C29.2643 31.8944 29.2988 31.9912 29.3027 32.0908C29.3066 32.1904 29.2801 32.2933 29.2295 32.3984C29.128 32.6095 28.9299 32.8276 28.6904 33.041C28.4512 33.2542 28.171 33.4618 27.9053 33.6523C27.6397 33.8428 27.388 34.017 27.207 34.1611C27.1169 34.233 27.0439 34.2981 26.9951 34.3545C26.9708 34.3826 26.9519 34.4092 26.9404 34.4336C26.929 34.458 26.9242 34.4817 26.9287 34.5029C27.0184 34.9829 27.28 35.4732 27.6729 35.9668C28.0658 36.4604 28.5904 36.958 29.208 37.4521C30.4436 38.4406 32.052 39.4175 33.7197 40.3252C34.6667 40.8406 35.6337 41.3329 36.5625 41.7939C36.4777 41.9565 36.3665 42.1081 36.2266 42.248C35.8712 42.6034 35.4431 42.8029 34.9414 42.8447C34.7734 42.8552 34.6616 42.8764 34.6016 42.9092C34.5715 42.9256 34.5528 42.9463 34.5479 42.9707C34.5429 42.9951 34.5527 43.0204 34.5723 43.0459C34.6113 43.0967 34.695 43.1543 34.8135 43.2168C34.9324 43.2796 35.0877 43.3485 35.2725 43.4209C35.607 43.552 36.0387 43.6938 36.5225 43.8398C36.1022 43.881 35.6476 43.8713 35.1777 43.8252C33.8875 43.6986 32.4851 43.2995 31.3682 42.9336C30.8097 42.7507 30.3229 42.5756 29.957 42.4482C29.7742 42.3846 29.6211 42.3332 29.5049 42.2979C29.4469 42.2802 29.3977 42.2657 29.3584 42.2568C29.3197 42.2481 29.2894 42.2447 29.2695 42.2461C29.0552 42.2618 28.9279 42.2177 28.8623 42.1318C28.7965 42.0455 28.7902 41.9124 28.8252 41.7422C28.8601 41.5724 28.9362 41.3682 29.0322 41.1416C29.1283 40.9149 29.2431 40.6664 29.3574 40.4082C29.5858 39.8925 29.8083 39.3378 29.8525 38.8447C29.8746 38.598 29.8529 38.3653 29.7637 38.1611C29.6744 37.9568 29.5177 37.7813 29.2744 37.6465C28.7886 37.3773 28.1155 37.3459 27.373 37.4053C26.6305 37.4646 25.8152 37.6153 25.0469 37.7109C24.2775 37.8067 23.554 37.8475 22.9922 37.6895C22.7116 37.6105 22.4716 37.4819 22.2861 37.2861C22.1007 37.0904 21.969 36.8267 21.9062 36.4766C21.8959 36.4197 21.8874 36.2648 21.8799 36.0361C21.8724 35.8076 21.866 35.5051 21.8594 35.1553C21.8462 34.4557 21.8325 33.5631 21.8105 32.6758C21.7885 31.7883 21.7583 30.9055 21.7109 30.2266C21.6873 29.8875 21.6591 29.5989 21.626 29.3857C21.6094 29.2794 21.5917 29.191 21.5723 29.125C21.5625 29.092 21.5517 29.064 21.541 29.042C21.5304 29.0201 21.5186 29.0027 21.5059 28.9922C21.4957 28.9838 21.4886 28.9775 21.4844 28.9727C21.4902 28.9734 21.4983 28.9755 21.5088 28.9785ZM36.5801 41.8018C37.2634 42.1409 37.9255 42.4638 38.5449 42.7637C38.4758 42.8795 38.398 42.985 38.3105 43.0801C37.8964 43.5302 37.2859 43.7577 36.5732 43.835C36.0717 43.6845 35.6246 43.5373 35.2803 43.4023C35.0958 43.33 34.9403 43.2615 34.8223 43.1992C34.704 43.1368 34.6241 43.0812 34.5879 43.0342C34.5699 43.0107 34.5641 42.9909 34.5674 42.9746C34.5707 42.9583 34.5836 42.9419 34.6113 42.9268C34.6671 42.8963 34.7744 42.8748 34.9424 42.8643C35.4489 42.8221 35.8824 42.6215 36.2412 42.2627C36.3829 42.121 36.4943 41.9665 36.5801 41.8018ZM23.7393 30.1904C23.7485 30.2005 23.7552 30.2098 23.7588 30.2168C23.7624 30.2239 23.7623 30.2284 23.7617 30.2305C23.7611 30.232 23.7594 30.2343 23.7539 30.2363C23.7494 30.238 23.7429 30.2377 23.7344 30.2383C23.7347 30.2212 23.7356 30.2046 23.7373 30.1885L23.7393 30.1904ZM36.7793 40.9639C36.7793 40.893 36.8095 40.8119 36.8633 40.7236C36.917 40.6355 36.994 40.541 37.085 40.4424C37.267 40.2451 37.5058 40.0332 37.7334 39.8281C37.9608 39.6232 38.1777 39.4245 38.3135 39.2549C38.3801 39.1716 38.4264 39.0937 38.4463 39.0254C39.0311 40.8237 38.9888 42.0021 38.5547 42.7461C37.935 42.4461 37.2725 42.1234 36.5889 41.7842C36.7144 41.5362 36.7793 41.2634 36.7793 40.9639Z" fill="#465ECB" stroke="#465ECB" stroke-width="0.0197712"/>
</svg>
