<svg width="431" height="367" viewBox="0 0 431 367" fill="none" xmlns="http://www.w3.org/2000/svg">
<path opacity="0.4" d="M194.259 29.3466C192.705 24.4166 181.995 26.9256 172.886 36.8966C170.071 38.9816 167.656 41.5256 166.085 44.4896C166.144 43.9626 166.224 43.4346 166.315 42.9056C166.568 42.8236 166.612 41.8746 166.56 41.6716C167.25 38.5436 168.479 35.3926 169.998 32.3626C170.061 32.3106 198.981 8.40957 189.986 1.89857C181.566 -4.19543 170.081 20.5676 169.873 30.5206C168.284 33.4726 166.933 36.5616 166.05 39.6616C165.504 37.4906 164.95 35.3216 164.385 33.1556C164.56 26.0256 164.017 10.4946 155.711 13.3546C145.009 17.0416 159.829 32.2976 164.212 36.5786C164.654 38.3046 165.098 40.0286 165.529 41.7566C164.659 45.8256 164.67 49.8536 166.075 53.5496C166.292 54.1156 167.254 53.7616 167.038 53.1936C166.25 51.1206 165.918 48.9356 165.946 46.6946C166.071 46.6606 166.183 46.5766 166.247 46.4186C167.498 43.3556 169.68 40.7116 172.332 38.5246C176.951 37.6736 195.701 33.9226 194.259 29.3466Z" fill="#DBB4BD"/>
<path d="M166.033 31.7982C166.033 31.7982 195.029 7.85017 186.025 1.33217C177.02 -5.18483 164.509 23.5872 166.033 31.7982Z" fill="#FE98D7"/>
<path d="M160.262 36.0236C160.262 36.0236 162.464 9.09862 151.749 12.7876C141.039 16.4776 155.894 31.7586 160.262 36.0236Z" fill="#FE98D7"/>
<path d="M167.355 38.1386C167.355 38.1386 191.943 33.9936 190.298 28.7786C188.654 23.5626 176.758 26.6696 167.355 38.1386Z" fill="#FE98D7"/>
<path d="M158.601 25.7904C159.823 30.2074 160.97 34.6464 162.088 39.0944C164.309 31.3014 169.459 23.5584 174.022 17.9524C174.434 17.4464 175.185 18.0354 174.774 18.5394C169.977 24.4324 164.417 32.8524 162.597 41.1034C162.649 41.3064 162.604 42.2554 162.352 42.3374C162.261 42.8654 162.181 43.3934 162.122 43.9204C165.151 38.2094 171.292 34.0424 177.448 31.7574C178.07 31.5274 178.38 32.4174 177.758 32.6464C171.301 35.0414 164.848 39.5754 162.286 45.8484C162.222 46.0064 162.11 46.0914 161.984 46.1244C161.956 48.3654 162.289 50.5514 163.076 52.6234C163.292 53.1914 162.331 53.5454 162.114 52.9794C160.708 49.2844 160.697 45.2554 161.568 41.1864C160.313 36.1584 159.023 31.1364 157.639 26.1444C157.478 25.5644 158.44 25.2034 158.601 25.7904Z" fill="#F13148"/>
<path opacity="0.4" d="M231.755 36.6853L224.307 17.5293C224.307 17.5293 202.608 35.7653 163.762 50.8683C124.917 65.9713 96.5977 67.1813 96.5977 67.1813L104.046 86.3373C104.046 86.3373 130.989 122.814 178.122 129.552L192.223 124.07L206.324 118.588C236.526 81.7823 231.755 36.6853 231.755 36.6853Z" fill="#DBB4BD"/>
<path d="M98.0469 86.3376C98.0469 86.3376 124.99 122.815 172.123 129.553C172.123 129.553 157.774 94.7006 133.404 87.7586C109.033 80.8156 98.0469 86.3376 98.0469 86.3376Z" fill="#5873CD"/>
<path d="M225.756 36.6855C225.756 36.6855 230.528 81.7826 200.324 118.589C200.324 118.589 187.362 83.1975 200.643 61.6165C213.923 40.0365 225.756 36.6855 225.756 36.6855Z" fill="#5873CD"/>
<path d="M157.762 50.8683C118.917 65.9713 90.5977 67.1813 90.5977 67.1813L98.0457 86.3373C147.855 99.4373 172.122 129.552 172.122 129.552L186.223 124.07L200.324 118.588C200.324 118.588 197.875 79.9893 225.756 36.6853L218.308 17.5293C218.308 17.5293 196.609 35.7653 157.762 50.8683Z" fill="#85A3F9"/>
<mask id="mask0_654_4476" style="mask-type:luminance" maskUnits="userSpaceOnUse" x="90" y="17" width="136" height="113">
<path d="M157.762 50.8683C118.917 65.9713 90.5977 67.1813 90.5977 67.1813L98.0457 86.3373C147.855 99.4373 172.122 129.552 172.122 129.552L186.223 124.07L200.324 118.588C200.324 118.588 197.875 79.9893 225.756 36.6853L218.308 17.5293C218.308 17.5293 196.609 35.7653 157.762 50.8683Z" fill="white"/>
</mask>
<g mask="url(#mask0_654_4476)">
<path d="M85.6362 75.4631C100.051 75.9741 115.025 73.0191 128.892 69.4771C165.074 60.2351 198.494 42.4391 227.551 19.1201C228.067 18.7051 227.453 17.8791 226.934 18.2961C198.187 41.3681 165.185 58.9941 129.431 68.2871C115.482 71.9131 100.319 74.9621 85.7962 74.4471C85.1402 74.4231 84.9752 75.4391 85.6362 75.4631Z" fill="#5873CD"/>
</g>
<path d="M160.065 58.8689C163.565 57.4979 166.178 52.9159 165.756 50.7389C165.593 49.8999 164.979 49.4579 164.059 49.5619H164.057C161.061 49.9729 159.469 56.2409 159.055 58.1309C158.594 57.9279 153.861 55.8849 150.807 56.2319C149.913 56.3339 149.229 56.6339 148.772 57.1259C148.122 57.8239 148.291 58.4529 148.449 58.7659C149.104 60.0629 151.978 60.8529 154.858 60.5259C155.882 60.4099 157.28 60.0979 158.528 59.3139C158.432 60.7879 157.87 64.3129 154.742 66.6949L155.241 67.3499C158.719 64.7019 159.28 60.8669 159.36 59.2909C161.551 62.9289 168.114 63.2449 168.401 63.2569L168.433 62.4339C168.368 62.4309 162.031 62.1289 160.065 58.8689ZM164.205 50.3719C164.651 50.3219 164.866 50.4729 164.948 50.8939C165.269 52.5499 163.118 56.7159 159.916 58.0489C160.509 55.4959 162.057 50.6659 164.205 50.3719ZM154.764 59.7079C152.144 60.0049 149.613 59.2469 149.183 58.3949C149.139 58.3049 149.019 58.0679 149.374 57.6859C149.694 57.3419 150.207 57.1279 150.899 57.0489C153.173 56.7909 156.643 58.0439 158.091 58.6219C156.973 59.3249 155.699 59.6009 154.764 59.7079Z" fill="#5873CD"/>
<path d="M408.99 236.663C408.5 238.416 406.606 239.79 404.785 239.717L392.289 239.219C390.471 239.144 389.385 237.65 389.875 235.893L401.781 193.398C402.273 191.643 404.017 190.853 405.658 191.646L416.722 196.98C418.361 197.77 419.303 199.855 418.812 201.61L408.99 236.663Z" fill="#FC7E93"/>
<path d="M337.24 216.559C336.749 218.313 337.649 220.473 339.242 221.356L350.18 227.419C351.774 228.302 353.48 227.591 353.972 225.839L365.878 183.339C366.369 181.584 365.286 180.004 363.474 179.827L351.251 178.637C349.438 178.461 347.553 179.752 347.061 181.507L337.24 216.559Z" fill="#FC7E93"/>
<path opacity="0.4" d="M403.489 140.053C403.489 140.053 380.669 131.06 370.714 150.362C365.149 161.154 365.401 172.559 365.851 183.572L356.253 182.637C354.44 182.461 352.555 183.752 352.063 185.507L342.243 220.56C341.752 222.314 342.652 224.474 344.245 225.357L352.869 230.137C346.727 239.363 340.519 249.018 339.663 261.2C338.139 282.861 362.309 287.039 362.309 287.039C362.309 287.039 385.129 296.028 395.083 276.728C400.681 265.874 400.391 254.398 399.936 243.326L409.786 243.719C411.607 243.792 413.501 242.418 413.991 240.665L423.813 205.611C424.304 203.856 423.362 201.771 421.723 200.981L413.034 196.792C419.142 187.615 425.284 178.002 426.136 165.89C427.659 144.225 403.489 140.053 403.489 140.053Z" fill="#DBB4BD"/>
<path d="M421.137 161.889C422.659 140.225 398.489 136.053 398.489 136.053C398.489 136.053 375.669 127.06 365.714 146.362C355.76 165.662 364.418 186.927 359.523 204.397C354.628 221.868 336.184 235.541 334.663 257.199C333.139 278.86 357.31 283.038 357.31 283.038C357.31 283.038 380.13 292.027 390.084 272.727C400.037 253.427 391.377 232.163 396.273 214.693C401.165 197.222 419.614 183.551 421.137 161.889Z" fill="#FFB2BC"/>
<path opacity="0.4" d="M398.335 187.052C399.052 176.869 387.687 174.908 387.687 174.908C387.687 174.908 376.961 170.68 372.284 179.753C367.603 188.826 371.674 198.823 369.373 207.035C367.071 215.247 358.401 221.677 357.685 231.86C356.97 242.039 368.33 244.002 368.33 244.002C368.33 244.002 379.059 248.231 383.738 239.157C388.418 230.084 384.346 220.088 386.648 211.876C388.947 203.661 397.619 197.237 398.335 187.052Z" fill="#F7DCE1"/>
<path opacity="0.4" d="M358.107 154.936L353.595 96.6809L342.364 97.5509L341.617 87.8959C341.494 86.3109 340.109 85.1259 338.525 85.2479C336.941 85.3709 335.755 86.7549 335.878 88.3399L336.625 97.9949L323.234 99.0319L322.487 89.3769C322.364 87.7919 320.979 86.6069 319.395 86.7299C317.811 86.8529 316.625 88.2369 316.747 89.8219L317.495 99.4769L304.104 100.514L303.356 90.8589C303.235 89.2739 301.85 88.0889 300.266 88.2119C298.68 88.3339 297.495 89.7189 297.618 91.3029L298.366 100.958L284.975 101.995L284.227 92.3399C284.104 90.7549 282.719 89.5699 281.135 89.6929C279.551 89.8159 278.365 91.1999 278.489 92.7839L279.236 102.439L265.845 103.476L265.098 93.8209C264.975 92.2369 263.59 91.0509 262.006 91.1739C260.422 91.2959 259.236 92.6809 259.358 94.2649L260.106 103.92L246.715 104.957L245.967 95.3019C245.846 93.7179 244.461 92.5319 242.877 92.6549C241.291 92.7779 240.106 94.1619 240.229 95.7459L240.977 105.401L227.586 106.438L226.838 96.7829C226.715 95.1989 225.33 94.0129 223.748 94.1359C222.164 94.2579 220.978 95.6429 221.101 97.2269L221.849 106.882L208.458 107.919L207.711 98.2639C207.588 96.6789 206.204 95.4939 204.619 95.6169C203.034 95.7399 201.849 97.1239 201.971 98.7079L202.719 108.363L189.328 109.4L188.581 99.7449C188.458 98.1609 187.074 96.9749 185.489 97.0979C183.905 97.2209 182.719 98.6049 182.843 100.19L183.59 109.845L170.2 110.882L169.453 101.227C169.33 99.6419 167.946 98.4569 166.361 98.5789C164.776 98.7019 163.591 100.086 163.714 101.671L164.462 111.326L151.071 112.363L150.323 102.708C150.2 101.123 148.816 99.9379 147.231 100.061C145.646 100.184 144.461 101.568 144.584 103.153L145.332 112.808L131.941 113.845L131.193 104.19C131.071 102.605 129.686 101.42 128.101 101.543C126.517 101.666 125.331 103.05 125.455 104.635L126.202 114.29L112.811 115.327L112.064 105.671C111.941 104.087 110.556 102.901 108.972 103.024C107.387 103.146 106.201 104.531 106.324 106.116L107.072 115.771L93.6819 116.808L92.9339 107.152C92.8109 105.567 91.4269 104.382 89.8419 104.505C88.2569 104.628 87.0719 106.012 87.1949 107.597L87.9419 117.252L76.7109 118.122L81.2219 176.376L92.9319 327.578L369.816 306.137L358.107 154.936Z" fill="#DBB4BD"/>
<path d="M347.587 91.6816L70.707 113.121L86.9255 322.575L363.805 301.135L347.587 91.6816Z" fill="white"/>
<path d="M347.588 91.6816L70.707 113.121L75.2178 171.375L352.099 149.935L347.588 91.6816Z" fill="#FE98D7"/>
<path d="M83.8394 99.5067C82.2544 99.6297 81.0694 101.014 81.1924 102.599L82.7114 122.206C82.8344 123.791 84.2184 124.976 85.8034 124.854C87.3884 124.731 88.5734 123.347 88.4504 121.762L86.9314 102.154C86.8084 100.57 85.4244 99.3847 83.8394 99.5067Z" fill="#F13148"/>
<path d="M102.969 98.0263C101.384 98.1483 100.198 99.5334 100.321 101.118L101.84 120.725C101.963 122.31 103.347 123.495 104.932 123.372C106.516 123.249 107.702 121.865 107.578 120.28L106.06 100.672C105.938 99.0884 104.553 97.9033 102.969 98.0263Z" fill="#F13148"/>
<path d="M122.1 96.5438C120.516 96.6668 119.33 98.0508 119.454 99.6358L120.972 119.243C121.095 120.828 122.479 122.013 124.064 121.891C125.649 121.768 126.834 120.384 126.711 118.799L125.192 99.1918C125.069 97.6068 123.685 96.4218 122.1 96.5438Z" fill="#F13148"/>
<path d="M141.23 95.0635C139.645 95.1865 138.46 96.5705 138.583 98.1555L140.102 117.763C140.225 119.347 141.609 120.533 143.194 120.41C144.779 120.288 145.964 118.903 145.841 117.318L144.322 97.7115C144.198 96.1255 142.815 94.9405 141.23 95.0635Z" fill="#F13148"/>
<path d="M160.359 93.5809C158.774 93.7039 157.589 95.0879 157.712 96.6729L159.231 116.281C159.353 117.865 160.738 119.051 162.323 118.928C163.907 118.805 165.093 117.421 164.97 115.836L163.452 96.2289C163.327 94.6439 161.943 93.4589 160.359 93.5809Z" fill="#F13148"/>
<path d="M179.487 92.0996C177.903 92.2226 176.717 93.6066 176.841 95.1916L178.359 114.8C178.482 116.384 179.867 117.57 181.451 117.447C183.036 117.325 184.221 115.94 184.098 114.356L182.579 94.7476C182.456 93.1626 181.072 91.9766 179.487 92.0996Z" fill="#F13148"/>
<path d="M198.618 90.6191C197.033 90.7421 195.848 92.1261 195.97 93.7101L197.489 113.318C197.611 114.903 198.996 116.088 200.581 115.965C202.166 115.842 203.351 114.458 203.228 112.874L201.709 93.2661C201.587 91.6811 200.203 90.4961 198.618 90.6191Z" fill="#F13148"/>
<path d="M217.746 89.1377C216.162 89.2597 214.976 90.6447 215.099 92.2287L216.619 111.837C216.741 113.422 218.126 114.607 219.709 114.484C221.293 114.361 222.479 112.977 222.357 111.393L220.837 91.7847C220.714 90.1997 219.329 89.0147 217.746 89.1377Z" fill="#F13148"/>
<path d="M236.876 87.6561C235.29 87.7791 234.105 89.1631 234.228 90.7471L235.748 110.355C235.869 111.94 237.254 113.125 238.84 113.002C240.424 112.88 241.61 111.495 241.486 109.911L239.966 90.3031C239.844 88.7191 238.46 87.5341 236.876 87.6561Z" fill="#F13148"/>
<path d="M256.004 86.1748C254.42 86.2968 253.234 87.6818 253.356 89.2658L254.876 108.874C254.999 110.459 256.384 111.644 257.968 111.521C259.552 111.398 260.738 110.014 260.614 108.43L259.096 88.8218C258.973 87.2368 257.589 86.0518 256.004 86.1748Z" fill="#F13148"/>
<path d="M275.131 84.6932C273.547 84.8162 272.361 86.2002 272.485 87.7842L274.002 107.392C274.125 108.977 275.51 110.162 277.094 110.039C278.678 109.916 279.866 108.532 279.742 106.947L278.222 87.3392C278.1 85.7562 276.715 84.5712 275.131 84.6932Z" fill="#F13148"/>
<path d="M294.266 83.2119C292.68 83.3339 291.495 84.7189 291.618 86.3029L293.138 105.911C293.259 107.496 294.644 108.681 296.23 108.558C297.814 108.435 299 107.051 298.876 105.466L297.356 85.8579C297.235 84.2739 295.85 83.0889 294.266 83.2119Z" fill="#F13148"/>
<path d="M313.395 81.7303C311.811 81.8533 310.625 83.2373 310.747 84.8223L312.267 104.429C312.39 106.014 313.775 107.199 315.359 107.076C316.943 106.953 318.129 105.569 318.006 103.984L316.488 84.3763C316.364 82.7933 314.979 81.6083 313.395 81.7303Z" fill="#F13148"/>
<path d="M332.523 80.249C330.939 80.372 329.753 81.756 329.876 83.341L331.394 102.949C331.517 104.534 332.902 105.719 334.486 105.596C336.07 105.473 337.256 104.089 337.133 102.504L335.615 82.897C335.492 81.311 334.107 80.126 332.523 80.249Z" fill="#F13148"/>
<path d="M150.672 175L125.09 176.98L127.071 202.561L152.653 200.581L150.672 175Z" fill="#F7DCE1"/>
<path d="M112.41 177.964L86.8281 179.945L88.8089 205.526L114.391 203.545L112.41 177.964Z" fill="#F7DCE1"/>
<path d="M227.183 169.073L201.602 171.054L203.582 196.635L229.163 194.654L227.183 169.073Z" fill="#F7DCE1"/>
<path d="M188.926 172.036L163.344 174.017L165.325 199.598L190.907 197.617L188.926 172.036Z" fill="#F7DCE1"/>
<path d="M303.699 163.153L278.117 165.134L280.098 190.715L305.68 188.734L303.699 163.153Z" fill="#F7DCE1"/>
<path d="M265.431 166.125L239.848 168.104L241.826 193.685L267.409 191.706L265.431 166.125Z" fill="#F7DCE1"/>
<path d="M341.966 160.175L316.383 162.158L318.366 187.74L343.949 185.757L341.966 160.175Z" fill="#F7DCE1"/>
<path d="M153.336 209.432L127.754 211.413L129.735 236.995L155.317 235.014L153.336 209.432Z" fill="#F7DCE1"/>
<path d="M115.078 212.395L89.4961 214.376L91.477 239.958L117.059 237.977L115.078 212.395Z" fill="#F7DCE1"/>
<path d="M229.854 203.507L204.273 205.487L206.254 231.069L231.835 229.089L229.854 203.507Z" fill="#F7DCE1"/>
<path d="M191.598 206.468L166.016 208.449L167.996 234.031L193.579 232.05L191.598 206.468Z" fill="#F7DCE1"/>
<path d="M306.37 197.582L280.789 199.562L282.77 225.145L308.351 223.164L306.37 197.582Z" fill="#F7DCE1"/>
<path d="M268.114 200.542L242.531 202.522L244.512 228.104L270.095 226.124L268.114 200.542Z" fill="#F7DCE1"/>
<path d="M344.629 194.616L319.047 196.597L321.028 222.179L346.61 220.198L344.629 194.616Z" fill="#F7DCE1"/>
<path d="M156.086 244.817L130.504 246.801L132.487 272.383L158.069 270.399L156.086 244.817Z" fill="#F7DCE1"/>
<path d="M117.828 247.781L92.2461 249.765L94.2296 275.348L119.812 273.364L117.828 247.781Z" fill="#F7DCE1"/>
<path d="M232.592 238.897L207.012 240.878L208.993 266.461L234.573 264.48L232.592 238.897Z" fill="#F7DCE1"/>
<path d="M194.34 241.858L168.758 243.839L170.739 269.422L196.321 267.441L194.34 241.858Z" fill="#F7DCE1"/>
<path d="M309.109 232.968L283.527 234.949L285.508 260.532L311.09 258.551L309.109 232.968Z" fill="#F7DCE1"/>
<path d="M270.852 235.932L245.27 237.913L247.25 263.496L272.833 261.515L270.852 235.932Z" fill="#F7DCE1"/>
<path d="M347.367 230.005L321.785 231.986L323.766 257.569L349.348 255.588L347.367 230.005Z" fill="#F7DCE1"/>
<path d="M158.75 279.25L133.168 281.233L135.151 306.816L160.734 304.833L158.75 279.25Z" fill="#F7DCE1"/>
<path d="M120.484 282.217L94.9023 284.198L96.8832 309.78L122.465 307.799L120.484 282.217Z" fill="#F7DCE1"/>
<path d="M197.012 276.285L171.43 278.269L173.413 303.852L198.995 301.868L197.012 276.285Z" fill="#F7DCE1"/>
<path d="M229.28 206.664C223.523 201.605 217.278 213.356 217.278 213.356C217.278 213.356 209.238 202.75 204.36 208.662C200.376 213.493 208.434 226.104 218.53 228.973C228.037 224.533 233.983 210.798 229.28 206.664Z" fill="#F13148"/>
<path d="M268.467 203.812C262.709 198.753 256.463 210.504 256.463 210.504C256.463 210.504 248.424 199.898 243.547 205.81C239.563 210.641 247.621 223.252 257.717 226.121C267.224 221.68 273.17 207.946 268.467 203.812Z" fill="#F13148"/>
<path d="M306.725 200.849C300.967 195.79 294.721 207.541 294.721 207.541C294.721 207.541 286.682 196.935 281.805 202.847C277.821 207.678 285.879 220.289 295.975 223.158C305.483 218.717 311.428 204.983 306.725 200.849Z" fill="#F13148"/>
<path d="M344.983 198.452C339.227 193.393 332.981 205.144 332.981 205.144C332.981 205.144 324.94 194.538 320.063 200.45C316.079 205.281 324.137 217.892 334.233 220.761C343.743 216.32 349.686 202.585 344.983 198.452Z" fill="#F13148"/>
<path opacity="0.4" d="M424.829 289.547C412.318 274.624 391.989 265.211 391.989 265.211C391.989 265.211 391.13 264.769 389.612 264.068C389.567 264.047 389.525 264.027 389.479 264.007C389.336 263.942 389.185 263.872 389.032 263.803C388.951 263.766 388.877 263.732 388.793 263.694V263.695C382.405 260.81 367.389 254.768 352.621 254.225L346.505 251.232L322.871 299.543L328.988 302.535L335.51 289.201L328.991 302.528C341.502 317.45 361.831 326.864 361.831 326.864C361.831 326.864 381.739 337.135 401.2 337.85L401.196 337.858L407.311 340.849L430.943 292.538L424.829 289.547Z" fill="#DBB4BD"/>
<path d="M339.507 251.229L315.875 299.541L321.992 302.533L345.624 254.221L339.507 251.229Z" fill="#5873CD"/>
<path d="M339.354 255.024L342.72 256.671C343.02 256.818 343.383 256.696 343.528 256.401C343.673 256.102 343.547 255.743 343.247 255.596L339.881 253.949C339.579 253.802 339.218 253.924 339.072 254.221C338.926 254.517 339.053 254.876 339.354 255.024Z" fill="#85A3F9"/>
<path d="M341.523 259.117L338.157 257.47C337.857 257.324 337.495 257.445 337.349 257.741C337.204 258.04 337.33 258.4 337.63 258.547L340.997 260.194C341.297 260.34 341.66 260.218 341.806 259.921C341.952 259.624 341.825 259.265 341.523 259.117Z" fill="#85A3F9"/>
<path d="M339.802 262.639L336.433 260.992C336.133 260.845 335.773 260.965 335.627 261.262C335.482 261.56 335.607 261.921 335.908 262.067L339.273 263.714C339.575 263.861 339.936 263.739 340.082 263.443C340.228 263.146 340.102 262.785 339.802 262.639Z" fill="#85A3F9"/>
<path d="M338.079 266.161L334.712 264.513C334.412 264.367 334.05 264.489 333.904 264.784C333.759 265.081 333.885 265.44 334.186 265.588L337.553 267.234C337.853 267.381 338.213 267.26 338.359 266.963C338.505 266.667 338.379 266.308 338.079 266.161Z" fill="#85A3F9"/>
<path d="M336.357 269.682L332.989 268.035C332.689 267.889 332.327 268.01 332.181 268.308C332.036 268.604 332.163 268.964 332.463 269.111L335.829 270.757C336.129 270.905 336.491 270.783 336.636 270.487C336.783 270.189 336.657 269.83 336.357 269.682Z" fill="#85A3F9"/>
<path d="M334.633 273.202L331.267 271.556C330.966 271.41 330.603 271.53 330.458 271.829C330.313 272.124 330.44 272.483 330.739 272.633L334.107 274.279C334.408 274.427 334.768 274.305 334.914 274.007C335.059 273.71 334.933 273.35 334.633 273.202Z" fill="#85A3F9"/>
<path d="M332.911 276.725L329.543 275.078C329.243 274.931 328.882 275.053 328.736 275.348C328.591 275.646 328.717 276.006 329.017 276.154L332.384 277.8C332.684 277.946 333.045 277.826 333.191 277.528C333.338 277.232 333.211 276.873 332.911 276.725Z" fill="#85A3F9"/>
<path d="M331.187 280.247L327.821 278.6C327.519 278.452 327.159 278.573 327.014 278.871C326.868 279.168 326.993 279.527 327.296 279.674L330.662 281.322C330.963 281.467 331.323 281.347 331.469 281.05C331.615 280.753 331.489 280.394 331.187 280.247Z" fill="#85A3F9"/>
<path d="M329.465 283.767L326.1 282.12C325.799 281.973 325.436 282.096 325.291 282.392C325.145 282.69 325.274 283.049 325.574 283.197L328.939 284.843C329.24 284.99 329.602 284.869 329.748 284.572C329.893 284.275 329.766 283.913 329.465 283.767Z" fill="#85A3F9"/>
<path d="M327.743 287.287L324.376 285.641C324.074 285.494 323.714 285.615 323.568 285.912C323.423 286.209 323.548 286.57 323.849 286.717L327.215 288.363C327.517 288.51 327.878 288.387 328.023 288.093C328.17 287.796 328.044 287.435 327.743 287.287Z" fill="#85A3F9"/>
<path d="M326.02 290.809L322.654 289.162C322.352 289.016 321.991 289.138 321.846 289.434C321.701 289.73 321.826 290.09 322.127 290.238L325.494 291.884C325.795 292.031 326.156 291.91 326.302 291.613C326.447 291.317 326.322 290.957 326.02 290.809Z" fill="#85A3F9"/>
<path d="M324.297 294.332L320.932 292.685C320.629 292.538 320.269 292.659 320.123 292.956C319.977 293.254 320.103 293.613 320.404 293.761L323.77 295.408C324.072 295.555 324.433 295.433 324.579 295.136C324.724 294.837 324.597 294.478 324.297 294.332Z" fill="#85A3F9"/>
<path d="M322.574 297.854L319.209 296.207C318.908 296.06 318.546 296.179 318.401 296.477C318.255 296.774 318.381 297.134 318.684 297.28L322.048 298.928C322.349 299.075 322.712 298.953 322.858 298.657C323.002 298.361 322.875 298 322.574 297.854Z" fill="#85A3F9"/>
<path d="M417.834 289.551L394.203 337.862L400.319 340.854L423.95 292.542L417.834 289.551Z" fill="#5873CD"/>
<path d="M417.677 293.337L421.044 294.985C421.344 295.132 421.705 295.009 421.851 294.714C421.997 294.416 421.871 294.057 421.57 293.909L418.203 292.261C417.902 292.115 417.541 292.237 417.396 292.535C417.251 292.831 417.378 293.191 417.677 293.337Z" fill="#85A3F9"/>
<path d="M419.847 297.431L416.481 295.784C416.18 295.637 415.819 295.758 415.674 296.054C415.528 296.353 415.653 296.713 415.954 296.86L419.321 298.507C419.623 298.653 419.983 298.531 420.129 298.234C420.274 297.939 420.149 297.578 419.847 297.431Z" fill="#85A3F9"/>
<path d="M418.126 300.953L414.76 299.306C414.458 299.159 414.096 299.281 413.951 299.576C413.806 299.874 413.93 300.234 414.232 300.383L417.599 302.029C417.9 302.176 418.262 302.054 418.408 301.758C418.553 301.46 418.426 301.099 418.126 300.953Z" fill="#85A3F9"/>
<path d="M416.403 304.475L413.038 302.827C412.736 302.68 412.375 302.802 412.229 303.098C412.083 303.395 412.21 303.755 412.511 303.902L415.876 305.548C416.179 305.697 416.539 305.575 416.685 305.279C416.831 304.981 416.703 304.621 416.403 304.475Z" fill="#85A3F9"/>
<path d="M414.681 307.995L411.314 306.348C411.013 306.202 410.652 306.323 410.506 306.621C410.36 306.917 410.486 307.276 410.788 307.424L414.155 309.071C414.456 309.219 414.817 309.098 414.962 308.801C415.108 308.501 414.983 308.142 414.681 307.995Z" fill="#85A3F9"/>
<path d="M412.957 311.517L409.589 309.87C409.289 309.723 408.929 309.844 408.783 310.142C408.638 310.437 408.763 310.797 409.063 310.946L412.43 312.593C412.73 312.739 413.092 312.618 413.238 312.322C413.382 312.024 413.257 311.663 412.957 311.517Z" fill="#85A3F9"/>
<path d="M411.234 315.038L407.868 313.392C407.568 313.245 407.206 313.366 407.06 313.663C406.915 313.961 407.041 314.32 407.342 314.468L410.708 316.114C411.009 316.26 411.372 316.14 411.517 315.843C411.661 315.546 411.534 315.186 411.234 315.038Z" fill="#85A3F9"/>
<path d="M409.512 318.56L406.145 316.913C405.845 316.765 405.484 316.887 405.339 317.184C405.192 317.481 405.318 317.84 405.619 317.987L408.986 319.635C409.286 319.781 409.648 319.66 409.794 319.363C409.939 319.067 409.812 318.706 409.512 318.56Z" fill="#85A3F9"/>
<path d="M407.79 322.079L404.423 320.432C404.123 320.285 403.762 320.407 403.615 320.703C403.47 321.001 403.596 321.36 403.896 321.507L407.264 323.155C407.564 323.302 407.925 323.18 408.071 322.884C408.216 322.588 408.091 322.226 407.79 322.079Z" fill="#85A3F9"/>
<path d="M406.068 325.601L402.701 323.956C402.399 323.809 402.039 323.932 401.892 324.228C401.747 324.523 401.874 324.884 402.173 325.031L405.541 326.677C405.841 326.824 406.203 326.703 406.348 326.407C406.494 326.11 406.368 325.748 406.068 325.601Z" fill="#85A3F9"/>
<path d="M404.344 329.124L400.978 327.477C400.677 327.331 400.315 327.452 400.169 327.749C400.024 328.046 400.151 328.405 400.451 328.553L403.818 330.2C404.118 330.348 404.479 330.226 404.626 329.928C404.771 329.631 404.644 329.271 404.344 329.124Z" fill="#85A3F9"/>
<path d="M402.621 332.646L399.254 330.998C398.954 330.851 398.594 330.973 398.447 331.269C398.302 331.568 398.428 331.927 398.728 332.074L402.094 333.722C402.394 333.868 402.757 333.746 402.903 333.449C403.049 333.151 402.922 332.793 402.621 332.646Z" fill="#85A3F9"/>
<path d="M400.9 336.167L397.532 334.521C397.232 334.374 396.871 334.494 396.725 334.791C396.579 335.089 396.705 335.449 397.006 335.594L400.374 337.243C400.674 337.39 401.034 337.267 401.181 336.971C401.326 336.674 401.2 336.314 400.9 336.167Z" fill="#85A3F9"/>
<path d="M384.989 265.212C384.989 265.212 365.081 254.941 345.621 254.226L333.806 278.378L321.992 302.529C334.503 317.451 354.832 326.865 354.832 326.865C354.832 326.865 374.74 337.136 394.201 337.851L406.015 313.699L417.829 289.548C405.318 274.625 384.989 265.212 384.989 265.212Z" fill="#85A3F9"/>
<path d="M384.989 265.211C384.989 265.211 383.822 264.61 381.793 263.693L351.672 325.27C353.641 326.311 354.832 326.864 354.832 326.864C354.832 326.864 374.74 337.135 394.201 337.85L406.015 313.698L417.829 289.547C405.318 274.624 384.989 265.211 384.989 265.211Z" fill="#5873CD"/>
<path d="M354.834 326.866C354.834 326.866 374.742 337.137 394.203 337.852L406.017 313.7L417.831 289.549C405.32 274.626 384.991 265.213 384.991 265.213L354.832 326.864L354.834 326.866Z" fill="#85A3F9"/>
<path d="M362.545 288.874L359.625 294.841L377.148 303.415L380.068 297.448L362.545 288.874Z" fill="white"/>
<path opacity="0.4" d="M274.142 318.051C270.597 316.664 267.23 315.731 264.516 315.3C264.524 315.009 264.518 314.719 264.498 314.431C267.193 313.894 270.521 312.828 274.009 311.301C281.784 307.898 287.379 303.522 286.506 301.526C285.632 299.532 278.621 300.671 270.846 304.074C267.359 305.601 264.317 307.322 262.094 308.937C261.896 308.727 261.687 308.526 261.467 308.334C262.992 306.049 264.591 302.94 265.978 299.396C269.071 291.492 269.931 284.441 267.903 283.647C265.875 282.854 261.723 288.618 258.633 296.523C257.245 300.068 256.312 303.435 255.881 306.149C255.59 306.141 255.301 306.147 255.013 306.167C254.475 303.473 253.409 300.145 251.883 296.659C248.48 288.883 244.103 283.286 242.108 284.159C240.113 285.032 241.254 292.045 244.656 299.821C246.182 303.307 247.903 306.348 249.518 308.572C249.308 308.77 249.107 308.978 248.915 309.198C246.63 307.673 243.522 306.074 239.979 304.688C232.075 301.595 225.022 300.734 224.229 302.76C223.435 304.789 229.2 308.942 237.106 312.033C240.65 313.42 244.017 314.353 246.731 314.784C246.723 315.075 246.729 315.364 246.749 315.652C244.054 316.19 240.726 317.256 237.24 318.782C229.464 322.185 223.868 326.562 224.74 328.557C225.614 330.552 232.626 329.411 240.403 326.008C243.889 324.482 246.931 322.761 249.154 321.146C249.352 321.356 249.561 321.556 249.78 321.748C248.255 324.034 246.655 327.142 245.269 330.687C242.176 338.591 241.315 345.644 243.341 346.437C245.371 347.231 249.523 341.466 252.614 333.561C254.001 330.016 254.934 326.649 255.365 323.934C255.656 323.943 255.945 323.937 256.233 323.917C256.771 326.612 257.837 329.94 259.364 333.429C262.767 341.204 267.143 346.799 269.139 345.926C271.133 345.052 269.993 338.04 266.591 330.266C265.064 326.779 263.343 323.737 261.728 321.513C261.938 321.315 262.139 321.106 262.33 320.886C264.615 322.412 267.723 324.011 271.269 325.398C279.173 328.491 286.224 329.351 287.018 327.323C287.812 325.294 282.048 321.143 274.142 318.051Z" fill="#DBB4BD"/>
<path d="M260.98 299.396C257.888 307.302 253.737 313.066 251.707 312.272C249.68 311.48 250.541 304.429 253.635 296.523C256.726 288.618 260.877 282.854 262.905 283.647C264.933 284.441 264.073 291.492 260.98 299.396Z" fill="#FE98D7"/>
<path d="M247.616 333.561C244.524 341.466 240.373 347.231 238.343 346.437C236.317 345.644 237.178 338.591 240.271 330.687C243.362 322.783 247.514 317.017 249.543 317.81C251.57 318.604 250.709 325.656 247.616 333.561Z" fill="#FE98D7"/>
<path d="M266.269 325.399C258.363 322.307 252.599 318.155 253.393 316.126C254.185 314.099 261.236 314.96 269.142 318.053C277.047 321.145 282.812 325.296 282.018 327.324C281.224 329.352 274.174 328.492 266.269 325.399Z" fill="#FE98D7"/>
<path d="M232.106 312.034C224.2 308.942 218.435 304.791 219.23 302.762C220.023 300.736 227.075 301.596 234.98 304.689C242.884 307.78 248.65 311.933 247.857 313.961C247.063 315.989 240.01 315.126 232.106 312.034Z" fill="#FE98D7"/>
<path d="M269.01 311.302C261.233 314.705 254.221 315.846 253.348 313.851C252.475 311.856 258.07 307.48 265.847 304.075C273.622 300.673 280.633 299.533 281.507 301.527C282.381 303.523 276.786 307.899 269.01 311.302Z" fill="#FE98D7"/>
<path d="M235.401 326.009C227.624 329.412 220.612 330.553 219.738 328.558C218.865 326.563 224.461 322.186 232.237 318.783C240.011 315.381 247.024 314.239 247.898 316.233C248.773 318.23 243.175 322.606 235.401 326.009Z" fill="#FE98D7"/>
<path d="M254.363 333.429C250.96 325.652 249.819 318.64 251.814 317.766C253.809 316.894 258.185 322.489 261.59 330.266C264.992 338.04 266.132 345.052 264.138 345.926C262.142 346.799 257.766 341.204 254.363 333.429Z" fill="#FE98D7"/>
<path d="M239.655 299.821C236.253 292.045 235.112 285.032 237.107 284.159C239.102 283.286 243.479 288.883 246.882 296.659C250.284 304.433 251.426 311.447 249.432 312.319C247.435 313.194 243.059 307.596 239.655 299.821Z" fill="#FE98D7"/>
<path d="M258.919 318.285C257.127 322.866 251.963 325.126 247.384 323.335C242.801 321.542 240.541 316.38 242.333 311.797C244.124 307.22 249.289 304.958 253.87 306.75C258.449 308.541 260.709 313.706 258.919 318.285Z" fill="white"/>
<path opacity="0.4" d="M141.891 334.68L68.1862 244.269C67.2962 243.177 65.6752 243.012 64.5832 243.903L30.4592 271.721C29.3672 272.612 29.2032 274.232 30.0922 275.325L103.797 365.736C104.687 366.828 106.308 366.993 107.4 366.102L141.524 338.284C142.616 337.394 142.78 335.773 141.891 334.68Z" fill="#DBB4BD"/>
<path d="M101.401 364.102C100.309 364.993 98.688 364.828 97.798 363.736L24.0929 273.325C23.2029 272.232 23.3669 270.612 24.4599 269.721L58.584 241.903C59.676 241.012 61.2969 241.177 62.1869 242.269L135.892 332.68C136.782 333.773 136.617 335.394 135.525 336.284L101.401 364.102Z" fill="#FFB2BC"/>
<path d="M40.1719 274.347C39.8999 277.029 37.5039 278.982 34.8209 278.708C32.1389 278.435 30.1869 276.04 30.4589 273.357C30.7329 270.674 33.1279 268.723 35.8099 268.996C38.4919 269.269 40.4459 271.664 40.1719 274.347Z" fill="#FC7E93"/>
<path d="M40.2853 273.234C40.0123 275.916 37.6163 277.869 34.9343 277.596C32.2523 277.324 30.2993 274.928 30.5723 272.245C30.8463 269.561 33.2413 267.61 35.9233 267.883C38.6063 268.157 40.5583 270.551 40.2853 273.234Z" fill="white"/>
<path d="M36.5064 274.937C36.4344 275.646 35.8004 276.164 35.0904 276.09C34.3804 276.019 33.8644 275.384 33.9364 274.675L34.3564 270.542C34.4284 269.832 35.0634 269.315 35.7734 269.388C36.4844 269.459 37.0014 270.094 36.9284 270.805L36.5064 274.937Z" fill="#F7DCE1"/>
<path d="M48.2657 284.271C47.9927 286.954 45.5966 288.906 42.9146 288.633C40.2326 288.361 38.2806 285.964 38.5526 283.282C38.8256 280.599 41.2207 278.648 43.9047 278.921C46.5847 279.194 48.5377 281.589 48.2657 284.271Z" fill="#FC7E93"/>
<path d="M48.3791 283.159C48.1051 285.842 45.7101 287.794 43.0271 287.521C40.3461 287.249 38.3931 284.852 38.6661 282.171C38.9401 279.487 41.3361 277.534 44.0181 277.808C46.6991 278.081 48.6521 280.475 48.3791 283.159Z" fill="white"/>
<path d="M44.5974 284.861C44.5244 285.572 43.8904 286.089 43.1804 286.015C42.4704 285.943 41.9534 285.31 42.0264 284.599L42.4464 280.466C42.5184 279.757 43.1524 279.24 43.8624 279.313C44.5734 279.385 45.0904 280.019 45.0174 280.729L44.5974 284.861Z" fill="#F7DCE1"/>
<path d="M56.3555 294.197C56.0825 296.878 53.6875 298.832 51.0045 298.558C48.3225 298.285 46.3705 295.889 46.6425 293.207C46.9155 290.524 49.3105 288.572 51.9935 288.846C54.6755 289.12 56.6295 291.513 56.3555 294.197Z" fill="#FC7E93"/>
<path d="M56.4689 293.084C56.1969 295.765 53.7999 297.719 51.1179 297.445C48.4359 297.172 46.4829 294.777 46.7559 292.095C47.0289 289.411 49.4249 287.459 52.1069 287.733C54.7889 288.006 56.7419 290.401 56.4689 293.084Z" fill="white"/>
<path d="M52.6881 294.785C52.6151 295.495 51.9811 296.012 51.2711 295.939C50.5611 295.867 50.0441 295.232 50.1161 294.523L50.5371 290.39C50.6091 289.68 51.2421 289.163 51.9541 289.236C52.6641 289.308 53.1801 289.942 53.1081 290.652L52.6881 294.785Z" fill="#F7DCE1"/>
<path d="M64.4453 304.122C64.1723 306.804 61.7773 308.757 59.0943 308.484C56.4133 308.211 54.4603 305.816 54.7323 303.133C55.0063 300.449 57.4003 298.498 60.0833 298.771C62.7653 299.044 64.7183 301.44 64.4453 304.122Z" fill="#FC7E93"/>
<path d="M64.5586 303.007C64.2866 305.69 61.8906 307.642 59.2076 307.37C56.5256 307.096 54.5736 304.701 54.8456 302.019C55.1196 299.334 57.5156 297.383 60.1966 297.656C62.8796 297.93 64.8326 300.325 64.5586 303.007Z" fill="white"/>
<path d="M60.781 304.71C60.708 305.421 60.073 305.939 59.364 305.865C58.654 305.793 58.137 305.158 58.21 304.447L58.63 300.316C58.702 299.606 59.336 299.087 60.046 299.162C60.757 299.232 61.274 299.868 61.201 300.578L60.781 304.71Z" fill="#F7DCE1"/>
<path d="M72.5352 314.045C72.2622 316.726 69.8662 318.68 67.1842 318.406C64.5032 318.134 62.5502 315.738 62.8222 313.056C63.0952 310.373 65.4902 308.421 68.1732 308.694C70.8552 308.968 72.8082 311.363 72.5352 314.045Z" fill="#FC7E93"/>
<path d="M72.6485 312.933C72.3765 315.614 69.9805 317.568 67.2975 317.294C64.6155 317.021 62.6635 314.626 62.9355 311.943C63.2085 309.26 65.6055 307.308 68.2875 307.582C70.9695 307.855 72.9225 310.25 72.6485 312.933Z" fill="white"/>
<path d="M68.8678 314.634C68.7948 315.345 68.1608 315.863 67.4498 315.788C66.7398 315.717 66.2238 315.082 66.2958 314.373L66.7158 310.24C66.7878 309.531 67.4228 309.013 68.1318 309.087C68.8428 309.158 69.3608 309.792 69.2868 310.502L68.8678 314.634Z" fill="#F7DCE1"/>
<path d="M80.6252 323.971C80.3512 326.653 77.9552 328.606 75.2742 328.333C72.5922 328.06 70.6392 325.664 70.9122 322.982C71.1852 320.298 73.5802 318.347 76.2632 318.62C78.9452 318.894 80.8982 321.288 80.6252 323.971Z" fill="#FC7E93"/>
<path d="M80.7385 322.858C80.4655 325.541 78.0695 327.494 75.3865 327.221C72.7055 326.948 70.7525 324.551 71.0255 321.87C71.2995 319.186 73.6945 317.234 76.3765 317.508C79.0575 317.781 81.0115 320.176 80.7385 322.858Z" fill="white"/>
<path d="M76.9597 324.561C76.8867 325.272 76.2527 325.789 75.5437 325.715C74.8337 325.643 74.3167 325.009 74.3897 324.299L74.8097 320.167C74.8827 319.456 75.5167 318.939 76.2267 319.012C76.9367 319.084 77.4547 319.718 77.3817 320.428L76.9597 324.561Z" fill="#F7DCE1"/>
<path d="M88.7189 333.896C88.4459 336.578 86.0499 338.531 83.3679 338.257C80.6859 337.985 78.7329 335.588 79.0059 332.906C79.2789 330.224 81.6739 328.272 84.3559 328.546C87.0389 328.819 88.9919 331.213 88.7189 333.896Z" fill="#FC7E93"/>
<path d="M88.8314 332.784C88.5584 335.466 86.1624 337.419 83.4804 337.145C80.7984 336.873 78.8454 334.477 79.1194 331.794C79.3924 329.111 81.7874 327.159 84.4704 327.433C87.1514 327.706 89.1054 330.1 88.8314 332.784Z" fill="white"/>
<path d="M85.0503 334.486C84.9783 335.196 84.3443 335.713 83.6343 335.64C82.9243 335.568 82.4074 334.934 82.4794 334.224L82.8993 330.091C82.9713 329.382 83.6053 328.865 84.3153 328.937C85.0263 329.009 85.5433 329.643 85.4703 330.354L85.0503 334.486Z" fill="#F7DCE1"/>
<path d="M96.8086 343.821C96.5356 346.504 94.1396 348.457 91.4576 348.183C88.7756 347.91 86.8236 345.515 87.0956 342.832C87.3696 340.148 89.7646 338.198 92.4466 338.47C95.1276 338.743 97.0816 341.138 96.8086 343.821Z" fill="#FC7E93"/>
<path d="M96.9221 342.708C96.6491 345.39 94.2531 347.344 91.5701 347.07C88.8891 346.797 86.9361 344.401 87.2091 341.72C87.4831 339.035 89.8781 337.084 92.5611 337.357C95.2411 337.631 97.1951 340.026 96.9221 342.708Z" fill="white"/>
<path d="M93.1404 344.41C93.0674 345.12 92.4334 345.638 91.7234 345.564C91.0134 345.492 90.4964 344.858 90.5694 344.149L90.9894 340.016C91.0614 339.306 91.6964 338.788 92.4054 338.862C93.1164 338.932 93.6344 339.567 93.5604 340.278L93.1404 344.41Z" fill="#F7DCE1"/>
<path d="M64.6877 254.361C64.4147 257.043 62.0187 258.996 59.3367 258.722C56.6557 258.45 54.7017 256.054 54.9747 253.372C55.2477 250.69 57.6427 248.737 60.3247 249.011C63.0077 249.283 64.9607 251.678 64.6877 254.361Z" fill="#FC7E93"/>
<path d="M64.8008 253.248C64.5278 255.93 62.1318 257.882 59.4498 257.608C56.7688 257.336 54.8158 254.94 55.0878 252.258C55.3608 249.575 57.7558 247.623 60.4388 247.897C63.1198 248.169 65.0738 250.565 64.8008 253.248Z" fill="white"/>
<path d="M61.0214 254.95C60.9494 255.659 60.3154 256.177 59.6064 256.103C58.8954 256.032 58.3784 255.398 58.4524 254.688L58.8714 250.556C58.9434 249.845 59.5784 249.328 60.2884 249.401C60.9984 249.473 61.5154 250.107 61.4424 250.817L61.0214 254.95Z" fill="#F7DCE1"/>
<path d="M72.7775 264.285C72.5045 266.968 70.1095 268.92 67.4265 268.647C64.7445 268.375 62.7915 265.979 63.0645 263.296C63.3375 260.613 65.7335 258.661 68.4155 258.934C71.0975 259.207 73.0505 261.603 72.7775 264.285Z" fill="#FC7E93"/>
<path d="M72.8898 263.173C72.6158 265.855 70.2218 267.807 67.5388 267.534C64.8568 267.262 62.9048 264.865 63.1778 262.184C63.4508 259.5 65.8458 257.549 68.5288 257.823C71.2098 258.095 73.1638 260.489 72.8898 263.173Z" fill="white"/>
<path d="M69.1083 264.874C69.0363 265.584 68.4013 266.102 67.6923 266.029C66.9823 265.956 66.4643 265.322 66.5383 264.612L66.9573 260.479C67.0293 259.769 67.6643 259.252 68.3743 259.325C69.0843 259.397 69.6013 260.032 69.5293 260.741L69.1083 264.874Z" fill="#F7DCE1"/>
<path d="M80.8703 274.211C80.5973 276.893 78.2023 278.845 75.5203 278.571C72.8383 278.299 70.8853 275.903 71.1583 273.221C71.4313 270.539 73.8273 268.587 76.5083 268.861C79.1913 269.133 81.1453 271.528 80.8703 274.211Z" fill="#FC7E93"/>
<path d="M80.9836 273.097C80.7106 275.779 78.3156 277.732 75.6336 277.458C72.9516 277.185 70.9986 274.789 71.2716 272.107C71.5446 269.424 73.9396 267.472 76.6216 267.746C79.3046 268.019 81.2566 270.414 80.9836 273.097Z" fill="white"/>
<path d="M77.202 274.8C77.13 275.509 76.496 276.026 75.786 275.953C75.075 275.88 74.558 275.247 74.632 274.537L75.052 270.405C75.124 269.694 75.758 269.177 76.468 269.25C77.179 269.322 77.695 269.957 77.623 270.667L77.202 274.8Z" fill="#F7DCE1"/>
<path d="M88.9601 284.135C88.6861 286.818 86.2921 288.77 83.6091 288.497C80.9271 288.224 78.9751 285.829 79.2481 283.146C79.5221 280.462 81.9171 278.511 84.5991 278.784C87.2801 279.057 89.2331 281.454 88.9601 284.135Z" fill="#FC7E93"/>
<path d="M89.0742 283.022C88.8012 285.706 86.4062 287.657 83.7232 287.384C81.0422 287.112 79.0892 284.715 79.3612 282.034C79.6352 279.351 82.0312 277.399 84.7122 277.672C87.3942 277.945 89.3472 280.339 89.0742 283.022Z" fill="white"/>
<path d="M85.2919 284.725C85.2199 285.435 84.5849 285.953 83.8759 285.879C83.1659 285.807 82.6479 285.174 82.7219 284.462L83.1419 280.331C83.2139 279.62 83.8489 279.103 84.5579 279.177C85.2679 279.249 85.7869 279.883 85.7129 280.593L85.2919 284.725Z" fill="#F7DCE1"/>
<path d="M97.0501 294.06C96.7761 296.742 94.3811 298.695 91.6991 298.421C89.0171 298.15 87.0641 295.753 87.3381 293.071C87.6101 290.388 90.0061 288.435 92.6881 288.71C95.3701 288.982 97.3231 291.377 97.0501 294.06Z" fill="#FC7E93"/>
<path d="M97.1634 292.948C96.8904 295.63 94.4944 297.582 91.8124 297.309C89.1314 297.035 87.1774 294.64 87.4514 291.958C87.7244 289.276 90.1194 287.323 92.8014 287.597C95.4834 287.87 97.4364 290.264 97.1634 292.948Z" fill="white"/>
<path d="M93.3817 294.651C93.3097 295.36 92.6747 295.876 91.9657 295.804C91.2547 295.732 90.7377 295.098 90.8117 294.388L91.2317 290.256C91.3037 289.546 91.9377 289.029 92.6477 289.102C93.3577 289.173 93.8757 289.808 93.8027 290.518L93.3817 294.651Z" fill="#F7DCE1"/>
<path d="M105.14 303.985C104.867 306.668 102.471 308.62 99.7898 308.347C97.1078 308.074 95.1548 305.678 95.4278 302.997C95.6998 300.313 98.0958 298.362 100.778 298.635C103.461 298.908 105.414 301.302 105.14 303.985Z" fill="#FC7E93"/>
<path d="M105.254 302.872C104.981 305.554 102.586 307.506 99.9031 307.233C97.2211 306.96 95.2681 304.565 95.5411 301.882C95.8141 299.199 98.2091 297.247 100.892 297.521C103.574 297.795 105.527 300.19 105.254 302.872Z" fill="white"/>
<path d="M101.472 304.575C101.399 305.285 100.765 305.802 100.056 305.728C99.3464 305.657 98.8284 305.023 98.9014 304.313L99.3214 300.18C99.3934 299.469 100.027 298.953 100.738 299.026C101.448 299.098 101.965 299.732 101.892 300.441L101.472 304.575Z" fill="#F7DCE1"/>
<path d="M113.234 313.91C112.961 316.592 110.566 318.544 107.884 318.27C105.202 317.998 103.249 315.602 103.522 312.919C103.794 310.237 106.19 308.285 108.872 308.559C111.555 308.832 113.508 311.227 113.234 313.91Z" fill="#FC7E93"/>
<path d="M113.347 312.796C113.074 315.478 110.679 317.431 107.996 317.157C105.315 316.885 103.362 314.489 103.635 311.806C103.908 309.123 106.303 307.172 108.985 307.445C111.667 307.719 113.621 310.114 113.347 312.796Z" fill="white"/>
<path d="M109.565 314.499C109.493 315.208 108.859 315.725 108.149 315.652C107.439 315.581 106.922 314.947 106.995 314.236L107.415 310.104C107.486 309.394 108.121 308.876 108.831 308.95C109.542 309.022 110.059 309.656 109.986 310.366L109.565 314.499Z" fill="#F7DCE1"/>
<path d="M121.324 323.834C121.051 326.516 118.655 328.47 115.973 328.196C113.291 327.924 111.338 325.528 111.611 322.846C111.885 320.162 114.28 318.211 116.962 318.484C119.645 318.756 121.598 321.152 121.324 323.834Z" fill="#FC7E93"/>
<path d="M121.437 322.722C121.164 325.405 118.768 327.357 116.086 327.083C113.405 326.811 111.452 324.415 111.725 321.733C111.998 319.049 114.393 317.098 117.076 317.371C119.757 317.644 121.71 320.039 121.437 322.722Z" fill="white"/>
<path d="M117.655 324.425C117.583 325.135 116.948 325.652 116.24 325.578C115.529 325.507 115.012 324.873 115.085 324.163L115.505 320.03C115.577 319.32 116.212 318.802 116.921 318.876C117.632 318.947 118.149 319.582 118.076 320.292L117.655 324.425Z" fill="#F7DCE1"/>
<path d="M129.413 333.759C129.14 336.443 126.745 338.394 124.063 338.121C121.38 337.848 119.428 335.452 119.701 332.77C119.974 330.087 122.37 328.135 125.052 328.409C127.734 328.682 129.687 331.078 129.413 333.759Z" fill="#FC7E93"/>
<path d="M129.527 332.647C129.254 335.329 126.858 337.282 124.176 337.008C121.494 336.736 119.541 334.339 119.815 331.657C120.087 328.975 122.483 327.022 125.165 327.296C127.847 327.57 129.8 329.963 129.527 332.647Z" fill="white"/>
<path d="M125.745 334.35C125.673 335.059 125.039 335.577 124.329 335.504C123.619 335.432 123.102 334.797 123.175 334.087L123.594 329.955C123.667 329.245 124.301 328.727 125.011 328.801C125.721 328.873 126.238 329.507 126.166 330.218L125.745 334.35Z" fill="#F7DCE1"/>
<path d="M104.899 353.747C104.626 356.429 102.231 358.381 99.5476 358.108C96.8656 357.835 94.9126 355.439 95.1856 352.757C95.4586 350.073 97.8546 348.122 100.537 348.396C103.218 348.668 105.172 351.063 104.899 353.747Z" fill="#FC7E93"/>
<path d="M105.012 352.632C104.739 355.313 102.343 357.267 99.6609 356.994C96.9789 356.721 95.0259 354.326 95.2989 351.644C95.5729 348.961 97.9689 347.008 100.651 347.282C103.331 347.556 105.285 349.95 105.012 352.632Z" fill="white"/>
<path d="M101.23 354.334C101.157 355.044 100.523 355.562 99.8132 355.489C99.1032 355.416 98.5862 354.781 98.6592 354.072L99.0802 349.94C99.1522 349.23 99.7862 348.712 100.496 348.786C101.206 348.858 101.724 349.491 101.651 350.201L101.23 354.334Z" fill="#F7DCE1"/>
<path d="M52.4299 264.353C52.1569 267.035 49.7609 268.988 47.0789 268.714C44.3979 268.442 42.4439 266.046 42.7169 263.363C42.9899 260.681 45.3849 258.728 48.0669 259.002C50.7509 259.275 52.7029 261.67 52.4299 264.353Z" fill="#FC7E93"/>
<path d="M52.543 263.241C52.27 265.923 49.874 267.875 47.192 267.601C44.511 267.329 42.558 264.933 42.83 262.251C43.103 259.568 45.498 257.616 48.181 257.89C50.863 258.161 52.817 260.557 52.543 263.241Z" fill="white"/>
<path d="M48.7636 264.943C48.6916 265.652 48.0576 266.17 47.3486 266.096C46.6376 266.025 46.1205 265.391 46.1945 264.681L46.6136 260.549C46.6856 259.838 47.3206 259.321 48.0306 259.394C48.7406 259.466 49.2576 260.1 49.1846 260.81L48.7636 264.943Z" fill="#F7DCE1"/>
<path d="M60.5197 274.277C60.2467 276.96 57.8517 278.912 55.1687 278.639C52.4867 278.367 50.5337 275.971 50.8067 273.288C51.0797 270.605 53.4757 268.653 56.1577 268.926C58.8407 269.2 60.7937 271.595 60.5197 274.277Z" fill="#FC7E93"/>
<path d="M60.632 273.165C60.358 275.847 57.964 277.799 55.281 277.526C52.599 277.254 50.647 274.857 50.92 272.175C51.193 269.491 53.588 267.54 56.271 267.814C58.951 268.087 60.905 270.481 60.632 273.165Z" fill="white"/>
<path d="M56.8544 274.866C56.7824 275.576 56.1474 276.094 55.4384 276.021C54.7284 275.948 54.2104 275.314 54.2844 274.604L54.7034 270.471C54.7754 269.761 55.4104 269.245 56.1194 269.317C56.8294 269.389 57.3464 270.024 57.2744 270.733L56.8544 274.866Z" fill="#F7DCE1"/>
<path d="M68.6125 284.204C68.3395 286.886 65.9445 288.838 63.2625 288.564C60.5805 288.292 58.6275 285.896 58.9005 283.214C59.1735 280.532 61.5685 278.58 64.2505 278.854C66.9335 279.125 68.8875 281.52 68.6125 284.204Z" fill="#FC7E93"/>
<path d="M68.7258 283.09C68.4528 285.772 66.0578 287.725 63.3758 287.451C60.6938 287.178 58.7407 284.782 59.0137 282.1C59.2867 279.417 61.6828 277.465 64.3638 277.739C67.0468 278.012 68.9998 280.408 68.7258 283.09Z" fill="white"/>
<path d="M64.9442 284.792C64.8722 285.501 64.2382 286.018 63.5282 285.945C62.8172 285.872 62.3002 285.239 62.3742 284.529L62.7942 280.397C62.8662 279.686 63.5002 279.169 64.2102 279.242C64.9212 279.314 65.4382 279.949 65.3652 280.659L64.9442 284.792Z" fill="#F7DCE1"/>
<path d="M76.7023 294.127C76.4283 296.81 74.0343 298.762 71.3513 298.489C68.6693 298.216 66.7173 295.821 66.9903 293.138C67.2633 290.454 69.6593 288.503 72.3413 288.776C75.0233 289.049 76.9753 291.446 76.7023 294.127Z" fill="#FC7E93"/>
<path d="M76.8164 293.014C76.5434 295.698 74.1484 297.649 71.4654 297.376C68.7844 297.104 66.8314 294.707 67.1034 292.026C67.3774 289.343 69.7734 287.391 72.4544 287.664C75.1364 287.937 77.0894 290.331 76.8164 293.014Z" fill="white"/>
<path d="M73.0341 294.717C72.9621 295.427 72.3271 295.945 71.6181 295.871C70.9081 295.799 70.3901 295.166 70.4641 294.454L70.8831 290.323C70.9551 289.612 71.5901 289.095 72.2991 289.169C73.0091 289.241 73.5281 289.875 73.4541 290.585L73.0341 294.717Z" fill="#F7DCE1"/>
<path d="M84.7923 304.052C84.5183 306.734 82.1233 308.687 79.4413 308.413C76.7593 308.142 74.8063 305.745 75.0803 303.063C75.3523 300.38 77.7483 298.427 80.4303 298.702C83.1133 298.974 85.0663 301.37 84.7923 304.052Z" fill="#FC7E93"/>
<path d="M84.9056 302.94C84.6326 305.622 82.2366 307.574 79.5546 307.301C76.8736 307.028 74.9196 304.632 75.1936 301.95C75.4666 299.268 77.8616 297.315 80.5436 297.589C83.2246 297.862 85.1786 300.256 84.9056 302.94Z" fill="white"/>
<path d="M81.1239 304.643C81.0519 305.352 80.4169 305.869 79.7079 305.796C78.9969 305.724 78.4799 305.09 78.5539 304.38L78.9739 300.248C79.0459 299.538 79.6799 299.02 80.3899 299.094C81.0999 299.165 81.6179 299.8 81.5449 300.51L81.1239 304.643Z" fill="#F7DCE1"/>
<path d="M92.8859 313.977C92.6129 316.66 90.2169 318.612 87.5359 318.339C84.8539 318.066 82.9009 315.67 83.1739 312.988C83.4459 310.304 85.8419 308.353 88.5239 308.626C91.2059 308.9 93.1589 311.294 92.8859 313.977Z" fill="#FC7E93"/>
<path d="M93.0002 312.865C92.7272 315.547 90.3322 317.499 87.6492 317.226C84.9672 316.953 83.0142 314.558 83.2872 311.875C83.5602 309.192 85.9562 307.24 88.6382 307.514C91.3192 307.787 93.2732 310.182 93.0002 312.865Z" fill="white"/>
<path d="M89.2195 314.568C89.1465 315.278 88.5125 315.795 87.8025 315.721C87.0925 315.65 86.5745 315.016 86.6475 314.306L87.0675 310.173C87.1395 309.462 87.7735 308.945 88.4845 309.019C89.1945 309.091 89.7115 309.725 89.6385 310.434L89.2195 314.568Z" fill="#F7DCE1"/>
<path d="M100.976 323.903C100.703 326.585 98.3078 328.537 95.6258 328.263C92.9438 327.991 90.9907 325.595 91.2637 322.912C91.5357 320.23 93.9318 318.278 96.6138 318.552C99.2968 318.825 101.251 321.219 100.976 323.903Z" fill="#FC7E93"/>
<path d="M101.089 322.789C100.817 325.471 98.421 327.424 95.738 327.15C93.057 326.877 91.104 324.482 91.377 321.799C91.65 319.116 94.045 317.165 96.727 317.438C99.409 317.712 101.363 320.107 101.089 322.789Z" fill="white"/>
<path d="M97.3073 324.491C97.2353 325.2 96.6013 325.717 95.8913 325.644C95.1813 325.573 94.6643 324.939 94.7373 324.228L95.1573 320.096C95.2283 319.386 95.8633 318.869 96.5733 318.942C97.2843 319.014 97.8013 319.648 97.7283 320.358L97.3073 324.491Z" fill="#F7DCE1"/>
<path d="M109.067 333.828C108.794 336.51 106.398 338.464 103.716 338.19C101.034 337.918 99.0806 335.522 99.3536 332.84C99.6276 330.156 102.022 328.205 104.705 328.478C107.387 328.749 109.341 331.145 109.067 333.828Z" fill="#FC7E93"/>
<path d="M109.179 332.714C108.906 335.397 106.511 337.349 103.828 337.075C101.147 336.803 99.1939 334.407 99.4669 331.725C99.7399 329.041 102.135 327.09 104.818 327.363C107.499 327.636 109.452 330.032 109.179 332.714Z" fill="white"/>
<path d="M105.397 334.417C105.325 335.127 104.69 335.644 103.982 335.57C103.271 335.499 102.754 334.865 102.827 334.155L103.247 330.022C103.319 329.312 103.954 328.795 104.663 328.868C105.374 328.939 105.891 329.574 105.818 330.284L105.397 334.417Z" fill="#F7DCE1"/>
<path d="M117.155 343.752C116.882 346.436 114.487 348.387 111.805 348.114C109.122 347.842 107.17 345.445 107.443 342.763C107.716 340.08 110.112 338.128 112.794 338.402C115.476 338.675 117.429 341.071 117.155 343.752Z" fill="#FC7E93"/>
<path d="M117.269 342.639C116.996 345.321 114.6 347.274 111.918 347C109.236 346.728 107.283 344.331 107.557 341.649C107.829 338.967 110.225 337.014 112.907 337.288C115.59 337.562 117.542 339.955 117.269 342.639Z" fill="white"/>
<path d="M113.487 344.342C113.415 345.051 112.781 345.569 112.071 345.496C111.361 345.424 110.844 344.789 110.917 344.079L111.336 339.947C111.409 339.237 112.043 338.719 112.753 338.793C113.463 338.865 113.98 339.499 113.908 340.21L113.487 344.342Z" fill="#F7DCE1"/>
<path opacity="0.4" d="M71.3745 221.949C69.3525 221.938 67.3845 221.504 65.4865 220.744C65.4985 220.627 65.4625 220.504 65.3495 220.396C63.1545 218.327 61.6205 215.602 60.6315 212.627C61.4235 208.418 64.3875 191.233 60.0195 190.958C55.3105 190.662 53.9316 200.616 59.4426 211.651C60.2926 214.719 61.6565 217.599 63.6555 219.902C63.2265 219.678 62.8035 219.436 62.3845 219.186C62.3975 218.944 61.6046 218.595 61.4146 218.571C58.9796 216.958 56.7026 214.879 54.6236 212.592C54.6036 212.532 43.7575 180.066 35.2645 185.583C27.3145 190.748 44.6135 208.647 53.0145 212.092C55.0055 214.413 57.1905 216.577 59.5375 218.346C57.5125 218.098 55.4865 217.858 53.4585 217.627C47.4505 215.139 34.0525 210.5 33.7595 218.508C33.3825 228.822 51.2245 221.225 56.3085 218.899C57.9225 219.089 59.5366 219.278 61.1496 219.478C64.3246 221.554 67.7565 222.868 71.3625 222.884C71.9145 222.885 71.9285 221.951 71.3745 221.949Z" fill="#DBB4BD"/>
<path d="M49.6246 212.595C49.6246 212.595 38.7656 180.061 30.2646 185.583C21.7626 191.106 42.1366 211.196 49.6246 212.595Z" fill="#FE98D7"/>
<path d="M51.3248 218.892C51.3248 218.892 29.1368 208.181 28.7598 218.509C28.3818 228.833 46.2608 221.21 51.3248 218.892Z" fill="#FE98D7"/>
<path d="M55.4536 213.554C55.4536 213.554 59.9996 191.273 55.0216 190.959C50.0436 190.646 48.7816 201.788 55.4536 213.554Z" fill="#FE98D7"/>
<path d="M42.0714 216.947C46.2314 217.357 50.3864 217.839 54.5374 218.347C48.6354 213.9 43.7374 206.976 40.4664 201.253C40.1704 200.736 40.9194 200.29 41.2134 200.806C44.6524 206.822 49.9904 214.316 56.4144 218.573C56.6044 218.598 57.3974 218.946 57.3844 219.188C57.8044 219.438 58.2274 219.68 58.6554 219.904C54.7904 215.452 53.2614 208.857 53.3384 202.871C53.3464 202.266 54.2054 202.295 54.1964 202.899C54.1134 209.179 55.8534 216.158 60.3494 220.397C60.4624 220.504 60.4984 220.627 60.4864 220.745C62.3844 221.505 64.3524 221.939 66.3744 221.95C66.9284 221.952 66.9144 222.886 66.3614 222.885C62.7564 222.868 59.3234 221.555 56.1484 219.479C51.4574 218.896 46.7604 218.346 42.0584 217.883C41.5114 217.828 41.5194 216.891 42.0714 216.947Z" fill="#F13148"/>
<path opacity="0.4" d="M62.8329 107.287L10.2709 91.8296C8.47788 91.3026 6.59588 92.3286 6.06888 94.1216C5.54188 95.9156 6.56788 97.7966 8.36088 98.3236L8.69887 98.4237L6.86888 104.647C3.92988 114.641 6.23587 124.886 12.0949 131.958C13.5219 134.193 15.3439 137.837 15.6859 142.301C16.2619 149.814 12.9039 158.187 18.4189 159.838V159.84C18.4229 159.841 18.4279 159.841 18.4319 159.842C18.4359 159.843 18.4389 159.846 18.4439 159.847V159.844C23.9739 161.441 25.6839 152.583 30.2359 146.579C32.8919 143.074 36.3219 141.006 38.7269 139.885C47.5469 137.149 55.1009 129.751 58.0569 119.699L59.8869 113.476L60.9249 113.781C62.7189 114.308 64.5989 113.282 65.1269 111.488C65.6529 109.695 64.6269 107.815 62.8329 107.287Z" fill="#DBB4BD"/>
<path d="M4.53588 94.5762L1.86888 103.647C-1.07012 113.641 1.23587 123.886 7.09487 130.958C8.52187 133.193 10.3439 136.837 10.6859 141.301C11.2619 148.814 7.90387 157.187 13.4189 158.838V158.84C13.4229 158.841 13.4279 158.841 13.4319 158.842C13.4359 158.843 13.4389 158.846 13.4439 158.847V158.844C18.9739 160.441 20.6839 151.583 25.2359 145.579C27.8919 142.074 31.3219 140.006 33.7269 138.885C42.5469 136.149 50.1009 128.751 53.0569 118.699L55.7249 109.629L4.53588 94.5762Z" fill="#FC7E93"/>
<path d="M4.86328 111.944C4.86328 111.944 5.14428 132.062 20.0323 136.44C34.9203 140.818 46.0923 124.068 46.0923 124.068C46.0923 124.068 45.5563 116.556 34.4093 115.307C23.2623 114.058 10.0673 117.533 4.86328 111.944Z" fill="#F13148"/>
<path d="M60.1249 110.489C59.5979 112.283 57.7169 113.309 55.9229 112.782L3.35992 97.325C1.56692 96.798 0.540923 94.916 1.06792 93.123C1.59492 91.33 3.47692 90.303 5.26992 90.831L57.8319 106.288C59.6259 106.815 60.6519 108.695 60.1249 110.489Z" fill="#F13148"/>
<path opacity="0.4" d="M314.519 69.8346C309.943 69.8326 307.326 68.1806 306.545 63.6636C306.156 61.4156 305.788 59.3806 304.778 57.3256C302.705 53.1076 294.746 53.3156 293.315 49.4386L299.46 43.5866C299.46 43.5866 269.075 5.30263 259.633 14.2946C250.192 23.2856 286.948 55.5036 286.948 55.5036L292.404 50.3076C292.784 50.9286 293.319 51.4666 293.843 51.9536C294.504 52.5686 295.585 53.1526 296.42 53.4396C300.869 54.9666 303.792 56.7136 304.942 61.5076C306.453 67.7996 307.069 71.0806 314.487 71.0846C315.294 71.0836 315.326 69.8346 314.519 69.8346Z" fill="#DBB4BD"/>
<path d="M286.905 48.9658C287.068 50.2048 287.973 51.1459 288.842 51.9539C289.503 52.5689 290.584 53.1529 291.419 53.4399C295.868 54.9669 298.791 56.7138 299.941 61.5078C301.452 67.7998 302.068 71.0809 309.486 71.0849C310.292 71.0839 310.324 69.8359 309.517 69.8349C304.941 69.8329 302.324 68.1809 301.543 63.6639C301.154 61.4159 300.786 59.3808 299.776 57.3258C297.575 52.8478 288.734 53.3619 288.12 48.6779C288.016 47.8769 286.801 48.1748 286.905 48.9658Z" fill="#F969C9"/>
<path d="M254.633 14.2944C245.192 23.2854 281.948 55.5034 281.948 55.5034L288.204 49.5454L294.461 43.5864C294.461 43.5864 264.076 5.30338 254.633 14.2944Z" fill="#FFB2BC"/>
<mask id="mask1_654_4476" style="mask-type:luminance" maskUnits="userSpaceOnUse" x="253" y="12" width="42" height="44">
<path d="M254.633 14.2944C245.192 23.2854 281.948 55.5034 281.948 55.5034L288.204 49.5454L294.461 43.5864C294.461 43.5864 264.076 5.30338 254.633 14.2944Z" fill="white"/>
</mask>
<g mask="url(#mask1_654_4476)">
<path d="M275.721 59.0477C283.221 49.0617 285.718 35.2437 283.442 23.1667C283.302 22.4267 282.171 22.6997 282.309 23.4357C284.533 35.2287 282.043 48.7017 274.723 58.4497C274.273 59.0477 275.275 59.6437 275.721 59.0477Z" fill="#F969C9"/>
<path d="M269.3 52.3047C276.799 42.3187 279.297 28.5006 277.021 16.4236C276.881 15.6836 275.749 15.9567 275.887 16.6917C278.112 28.4847 275.622 41.9577 268.302 51.7057C267.851 52.3047 268.852 52.9007 269.3 52.3047Z" fill="#F969C9"/>
<path d="M262.878 45.5615C270.377 35.5755 272.874 21.7575 270.599 9.68049C270.458 8.94049 269.327 9.21349 269.465 9.94849C271.689 21.7415 269.2 35.2145 261.88 44.9625C261.429 45.5615 262.43 46.1565 262.878 45.5615Z" fill="#F969C9"/>
<path d="M256.455 38.8173C263.955 28.8313 266.452 15.0133 264.176 2.93634C264.036 2.19634 262.905 2.46935 263.042 3.20435C265.267 14.9974 262.777 28.4703 255.457 38.2183C255.007 38.8173 256.008 39.4123 256.455 38.8173Z" fill="#F969C9"/>
<path d="M250.034 32.0742C257.533 22.0872 260.03 8.27021 257.754 -3.80779C257.615 -4.54779 256.483 -4.2748 256.621 -3.5398C258.845 8.2542 256.356 21.7272 249.036 31.4752C248.586 32.0742 249.587 32.6692 250.034 32.0742Z" fill="#F969C9"/>
<path d="M282.143 65.7919C289.642 55.8059 292.139 41.9879 289.864 29.9109C289.724 29.1709 288.592 29.4439 288.73 30.1799C290.955 41.9729 288.465 55.4459 281.145 65.1939C280.695 65.7919 281.696 66.3869 282.143 65.7919Z" fill="#F969C9"/>
</g>
<g opacity="0.4">
<path d="M334.167 270.557L295.398 298.717L298.964 303.626L337.733 275.465L334.167 270.557Z" fill="#DBB4BD"/>
<path d="M379.812 333.425L344.094 359.372L360.432 347.503L379.812 333.425C376.194 316.457 364.123 300.562 364.123 300.562C364.123 300.562 352.741 284.169 337.722 275.482L318.341 289.561L298.961 303.639C301.706 316.514 309.315 328.764 312.828 333.928C312.854 333.966 312.877 333.999 312.902 334.036C313.003 334.183 313.1 334.327 313.193 334.461C313.257 334.554 313.315 334.637 313.375 334.723C313.433 334.806 313.491 334.891 313.546 334.968C313.63 335.088 313.706 335.196 313.781 335.303C313.806 335.338 313.834 335.377 313.858 335.411C313.944 335.532 314.022 335.641 314.095 335.742C314.106 335.759 314.119 335.777 314.13 335.793C314.458 336.247 314.645 336.493 314.649 336.499L314.651 336.501C314.651 336.501 326.033 352.896 341.052 361.582L341.045 361.587L344.61 366.493L383.376 338.333L379.812 333.425Z" fill="#DBB4BD"/>
</g>
<path d="M328.167 270.557L289.398 298.717L292.964 303.626L331.733 275.465L328.167 270.557Z" fill="#F13148"/>
<path d="M326.456 273.493L328.419 276.195C328.593 276.435 328.93 276.492 329.167 276.319C329.406 276.144 329.457 275.809 329.281 275.568L327.32 272.867C327.143 272.626 326.808 272.57 326.569 272.744C326.332 272.916 326.281 273.252 326.456 273.493Z" fill="#FE98D7"/>
<path d="M326.452 277.622L324.491 274.92C324.315 274.68 323.98 274.623 323.743 274.796C323.503 274.971 323.452 275.307 323.627 275.548L325.59 278.25C325.766 278.489 326.101 278.546 326.34 278.372C326.577 278.2 326.629 277.864 326.452 277.622Z" fill="#FE98D7"/>
<path d="M323.629 279.675L321.665 276.973C321.49 276.731 321.157 276.675 320.918 276.848C320.679 277.023 320.628 277.359 320.803 277.599L322.766 280.3C322.941 280.542 323.276 280.597 323.515 280.425C323.752 280.252 323.803 279.915 323.629 279.675Z" fill="#FE98D7"/>
<path d="M320.8 281.727L318.838 279.026C318.663 278.784 318.327 278.729 318.089 278.902C317.851 279.075 317.799 279.411 317.976 279.652L319.939 282.353C320.114 282.595 320.448 282.65 320.685 282.477C320.924 282.304 320.976 281.968 320.8 281.727Z" fill="#FE98D7"/>
<path d="M317.977 283.779L316.014 281.076C315.839 280.836 315.503 280.781 315.264 280.954C315.026 281.127 314.977 281.464 315.152 281.704L317.113 284.406C317.289 284.647 317.623 284.702 317.861 284.529C318.101 284.355 318.151 284.02 317.977 283.779Z" fill="#FE98D7"/>
<path d="M315.152 285.831L313.189 283.131C313.014 282.891 312.678 282.833 312.439 283.007C312.203 283.18 312.152 283.517 312.326 283.757L314.29 286.459C314.465 286.7 314.8 286.755 315.038 286.582C315.276 286.41 315.328 286.074 315.152 285.831Z" fill="#FE98D7"/>
<path d="M312.324 287.886L310.361 285.184C310.187 284.943 309.85 284.887 309.613 285.06C309.375 285.234 309.323 285.57 309.499 285.81L311.462 288.513C311.636 288.752 311.972 288.81 312.21 288.635C312.448 288.462 312.499 288.127 312.324 287.886Z" fill="#FE98D7"/>
<path d="M309.5 289.938L307.538 287.237C307.361 286.995 307.027 286.939 306.788 287.112C306.551 287.286 306.499 287.622 306.676 287.863L308.638 290.565C308.814 290.804 309.148 290.86 309.387 290.687C309.625 290.515 309.675 290.18 309.5 289.938Z" fill="#FE98D7"/>
<path d="M306.674 291.99L304.713 289.289C304.537 289.047 304.2 288.992 303.963 289.165C303.725 289.338 303.676 289.676 303.85 289.916L305.813 292.617C305.987 292.859 306.324 292.914 306.561 292.742C306.8 292.568 306.85 292.231 306.674 291.99Z" fill="#FE98D7"/>
<path d="M303.848 294.041L301.885 291.341C301.708 291.1 301.374 291.044 301.136 291.218C300.899 291.391 300.846 291.727 301.021 291.969L302.985 294.669C303.161 294.912 303.496 294.965 303.733 294.794C303.972 294.621 304.024 294.284 303.848 294.041Z" fill="#FE98D7"/>
<path d="M301.023 296.095L299.061 293.394C298.884 293.153 298.549 293.097 298.311 293.272C298.074 293.443 298.022 293.779 298.198 294.022L300.16 296.722C300.336 296.963 300.67 297.02 300.909 296.845C301.147 296.672 301.199 296.337 301.023 296.095Z" fill="#FE98D7"/>
<path d="M298.194 298.149L296.233 295.447C296.056 295.206 295.722 295.15 295.485 295.324C295.245 295.497 295.195 295.832 295.369 296.074L297.332 298.775C297.509 299.017 297.843 299.072 298.082 298.899C298.32 298.725 298.371 298.388 298.194 298.149Z" fill="#FE98D7"/>
<path d="M295.37 300.201L293.408 297.501C293.232 297.26 292.897 297.202 292.659 297.376C292.421 297.549 292.369 297.884 292.548 298.126L294.507 300.828C294.683 301.069 295.02 301.125 295.257 300.951C295.493 300.779 295.545 300.442 295.37 300.201Z" fill="#FE98D7"/>
<path d="M373.837 333.432L335.074 361.602L338.64 366.508L377.403 338.339L373.837 333.432Z" fill="#F13148"/>
<path d="M372.112 336.344L374.074 339.048C374.249 339.289 374.584 339.344 374.822 339.171C375.061 338.997 375.113 338.662 374.936 338.42L372.975 335.718C372.798 335.478 372.463 335.422 372.225 335.596C371.988 335.769 371.937 336.105 372.112 336.344Z" fill="#FE98D7"/>
<path d="M372.109 340.472L370.147 337.771C369.97 337.53 369.636 337.474 369.399 337.647C369.16 337.821 369.108 338.157 369.283 338.398L371.246 341.1C371.423 341.341 371.756 341.395 371.995 341.221C372.232 341.05 372.284 340.714 372.109 340.472Z" fill="#FE98D7"/>
<path d="M369.285 342.527L367.323 339.825C367.147 339.583 366.811 339.528 366.574 339.7C366.337 339.875 366.284 340.21 366.459 340.453L368.421 343.153C368.598 343.394 368.934 343.45 369.171 343.278C369.41 343.104 369.461 342.766 369.285 342.527Z" fill="#FE98D7"/>
<path d="M366.459 344.578L364.498 341.877C364.322 341.635 363.987 341.58 363.749 341.752C363.511 341.926 363.46 342.263 363.637 342.503L365.598 345.203C365.775 345.447 366.109 345.502 366.346 345.328C366.584 345.155 366.635 344.819 366.459 344.578Z" fill="#FE98D7"/>
<path d="M363.634 346.629L361.67 343.928C361.495 343.688 361.159 343.633 360.921 343.807C360.682 343.979 360.632 344.315 360.809 344.557L362.771 347.258C362.947 347.499 363.281 347.555 363.519 347.381C363.759 347.208 363.809 346.872 363.634 346.629Z" fill="#FE98D7"/>
<path d="M360.809 348.684L358.845 345.981C358.669 345.742 358.335 345.685 358.097 345.86C357.859 346.032 357.808 346.367 357.982 346.609L359.946 349.311C360.121 349.552 360.457 349.607 360.694 349.435C360.932 349.261 360.984 348.924 360.809 348.684Z" fill="#FE98D7"/>
<path d="M357.98 350.737L356.017 348.035C355.844 347.794 355.507 347.738 355.269 347.911C355.03 348.084 354.979 348.42 355.156 348.662L357.118 351.363C357.294 351.602 357.63 351.66 357.868 351.486C358.103 351.313 358.155 350.977 357.98 350.737Z" fill="#FE98D7"/>
<path d="M355.155 352.789L353.192 350.088C353.017 349.846 352.682 349.792 352.445 349.964C352.206 350.138 352.156 350.473 352.33 350.713L354.293 353.415C354.468 353.656 354.804 353.713 355.043 353.539C355.28 353.367 355.33 353.031 355.155 352.789Z" fill="#FE98D7"/>
<path d="M352.332 354.84L350.369 352.139C350.194 351.898 349.859 351.843 349.62 352.015C349.383 352.189 349.331 352.525 349.506 352.765L351.471 355.467C351.644 355.709 351.98 355.763 352.218 355.59C352.456 355.418 352.508 355.081 352.332 354.84Z" fill="#FE98D7"/>
<path d="M349.505 356.894L347.541 354.193C347.365 353.952 347.03 353.898 346.791 354.071C346.555 354.242 346.502 354.579 346.678 354.82L348.641 357.521C348.815 357.762 349.151 357.818 349.389 357.645C349.627 357.472 349.678 357.135 349.505 356.894Z" fill="#FE98D7"/>
<path d="M346.679 358.947L344.718 356.246C344.542 356.006 344.207 355.949 343.967 356.123C343.73 356.296 343.679 356.632 343.854 356.873L345.817 359.574C345.992 359.816 346.327 359.871 346.566 359.697C346.804 359.524 346.854 359.187 346.679 358.947Z" fill="#FE98D7"/>
<path d="M343.852 360.999L341.889 358.297C341.715 358.055 341.38 358.001 341.141 358.174C340.902 358.347 340.851 358.684 341.027 358.924L342.988 361.626C343.164 361.865 343.5 361.922 343.739 361.749C343.977 361.576 344.026 361.241 343.852 360.999Z" fill="#FE98D7"/>
<path d="M341.028 363.052L339.063 360.351C338.89 360.111 338.555 360.053 338.316 360.227C338.078 360.401 338.026 360.737 338.203 360.977L340.166 363.68C340.34 363.921 340.675 363.975 340.914 363.802C341.151 363.63 341.202 363.293 341.028 363.052Z" fill="#FE98D7"/>
<path d="M358.123 300.561C358.123 300.561 346.741 284.168 331.722 275.481L312.341 289.56L292.961 303.638C296.579 320.605 308.651 336.5 308.651 336.5C308.651 336.5 320.033 352.895 335.052 361.581L354.432 347.502L373.812 333.424C370.194 316.456 358.123 300.561 358.123 300.561Z" fill="#FE98D7"/>
<path d="M358.123 300.561C358.123 300.561 357.454 299.602 356.239 298.034L306.828 333.928C307.943 335.57 308.651 336.501 308.651 336.501C308.651 336.501 320.033 352.896 335.052 361.582L354.432 347.503L373.812 333.425C370.194 316.456 358.123 300.561 358.123 300.561Z" fill="#F13148"/>
<path d="M308.65 336.501C308.65 336.501 320.032 352.896 335.051 361.582L354.431 347.503L373.811 333.425C370.193 316.457 358.122 300.562 358.122 300.562L308.648 336.5L308.65 336.501Z" fill="#FE98D7"/>
<path d="M330.609 309.807L325.82 313.285L336.035 327.348L340.824 323.87L330.609 309.807Z" fill="white"/>
<path opacity="0.4" d="M206.929 332.255C202.553 322.491 186.647 335.231 179.706 341.461C177.06 342.808 174.419 344.168 171.784 345.536C174.099 342.115 175.996 338.29 177.551 334.371C187.265 325.707 201.894 294.486 188.515 292.246C174.219 289.852 175.605 335.751 175.607 335.837C173.916 339.758 171.852 343.526 169.342 346.798C169.095 346.927 168.19 347.774 168.327 348.066C167.881 348.598 167.426 349.119 166.953 349.619C168.534 345.707 168.964 341.408 168.589 337.145C170.583 320.616 163.764 309.026 157.511 311.854C151.706 314.479 164.282 334.223 167.451 339.022C167.584 343.227 166.852 347.406 164.895 351.119C164.794 351.31 164.808 351.481 164.881 351.621C162.677 353.554 160.216 355.122 157.469 356.19C156.718 356.482 157.201 357.634 157.953 357.343C162.847 355.438 166.864 352.015 170.151 347.783C172.244 346.691 174.346 345.614 176.445 344.535C184.509 344.756 212.573 344.844 206.929 332.255Z" fill="#DBB4BD"/>
<path d="M170.608 335.839C170.608 335.839 169.206 289.851 183.516 292.246C197.824 294.642 180.097 330.192 170.608 335.839Z" fill="#85A3F9"/>
<path d="M171.426 344.535C171.426 344.535 196.282 319.657 201.929 332.256C207.577 344.854 179.465 344.756 171.426 344.535Z" fill="#85A3F9"/>
<path d="M163.154 340.075C163.154 340.075 145.895 314.845 152.51 311.854C159.127 308.862 166.383 322.009 163.154 340.075Z" fill="#85A3F9"/>
<path d="M183.041 337.284C177.587 339.967 172.175 342.737 166.781 345.537C172.598 336.94 175.82 325.8 177.424 316.997C177.569 316.203 176.329 316.042 176.185 316.833C174.497 326.088 170.96 338.164 164.339 346.799C164.092 346.928 163.187 347.775 163.324 348.067C162.878 348.599 162.423 349.12 161.95 349.62C164.995 342.084 163.799 333.113 160.716 325.734C160.405 324.99 159.252 325.472 159.563 326.217C162.797 333.956 163.9 343.515 159.892 351.119C159.791 351.31 159.805 351.481 159.878 351.621C157.674 353.554 155.213 355.122 152.466 356.19C151.715 356.482 152.198 357.634 152.95 357.343C157.844 355.438 161.861 352.015 165.148 347.783C171.241 344.605 177.357 341.469 183.524 338.436C184.243 338.082 183.765 336.927 183.041 337.284Z" fill="#5873CD"/>
<path opacity="0.4" d="M407.864 108.129C407.356 101.014 394.483 105.353 388.712 107.667C386.746 107.904 384.781 108.152 382.819 108.407C385.051 106.795 387.115 104.833 388.984 102.734C397.049 99.5307 413.351 83.3277 405.486 78.8647C397.082 74.0957 387.45 103.153 387.431 103.208C385.476 105.275 383.322 107.163 381.001 108.638C380.817 108.661 380.056 108.985 380.076 109.2C379.675 109.431 379.271 109.653 378.86 109.857C380.745 107.769 381.997 105.175 382.736 102.421C387.767 92.5267 386.148 83.7087 381.586 84.0497C377.351 84.3647 380.709 99.6057 381.595 103.336C380.717 105.999 379.302 108.449 377.228 110.327C377.122 110.423 377.09 110.533 377.105 110.637C375.282 111.344 373.383 111.763 371.419 111.804C370.882 111.815 370.921 112.647 371.458 112.637C374.959 112.563 378.257 111.339 381.283 109.441C382.844 109.237 384.405 109.042 385.967 108.847C390.965 110.828 408.518 117.303 407.864 108.129Z" fill="#DBB4BD"/>
<path d="M384.301 102.063C384.301 102.063 393.944 72.9453 402.356 77.7193C410.767 82.4933 391.534 100.698 384.301 102.063Z" fill="#85A3F9"/>
<path d="M382.824 107.696C382.824 107.696 404.08 97.8043 404.733 106.984C405.389 116.165 387.807 109.673 382.824 107.696Z" fill="#85A3F9"/>
<path d="M378.665 103.01C378.665 103.01 373.628 83.265 378.455 82.905C383.283 82.545 384.818 92.437 378.665 103.01Z" fill="#85A3F9"/>
<path d="M391.756 105.813C387.727 106.244 383.704 106.742 379.687 107.261C385.296 103.208 389.861 96.9692 392.88 91.8252C393.151 91.3602 392.412 90.9762 392.142 91.4382C388.968 96.8482 383.991 103.6 377.87 107.493C377.686 107.517 376.926 107.84 376.944 108.054C376.544 108.285 376.14 108.507 375.728 108.712C379.359 104.689 380.662 98.7982 380.42 93.4732C380.396 92.9362 379.563 92.9742 379.586 93.5122C379.841 99.0972 378.346 105.335 374.096 109.181C373.99 109.277 373.958 109.387 373.973 109.491C372.15 110.197 370.251 110.615 368.287 110.657C367.749 110.668 367.788 111.5 368.326 111.49C371.827 111.415 375.125 110.192 378.151 108.294C382.692 107.698 387.24 107.133 391.796 106.644C392.325 106.587 392.292 105.756 391.756 105.813Z" fill="#5873CD"/>
</svg>
