<svg width="24" height="24" viewBox="0 0 24 24" fill="none" xmlns="http://www.w3.org/2000/svg">
<mask id="mask0_654_4224" style="mask-type:alpha" maskUnits="userSpaceOnUse" x="0" y="0" width="24" height="24">
<rect width="24" height="24" fill="#D9D9D9"/>
</mask>
<g mask="url(#mask0_654_4224)">
<path d="M4 18V6V19V18ZM4 20C3.45 20 2.97917 19.8042 2.5875 19.4125C2.19583 19.0208 2 18.55 2 18V6C2 5.45 2.19583 4.97917 2.5875 4.5875C2.97917 4.19583 3.45 4 4 4H9.175C9.44167 4 9.69583 4.05 9.9375 4.15C10.1792 4.25 10.3917 4.39167 10.575 4.575L12 6H20C20.55 6 21.0208 6.19583 21.4125 6.5875C21.8042 6.97917 22 7.45 22 8V12C22 12.2833 21.9042 12.5208 21.7125 12.7125C21.5208 12.9042 21.2833 13 21 13C20.7167 13 20.4792 12.9042 20.2875 12.7125C20.0958 12.5208 20 12.2833 20 12V8H11.175L9.175 6H4V18H8C8.28333 18 8.52083 18.0958 8.7125 18.2875C8.90417 18.4792 9 18.7167 9 19C9 19.2833 8.90417 19.5208 8.7125 19.7125C8.52083 19.9042 8.28333 20 8 20H4ZM13.825 19L15.3 20.475C15.5 20.675 15.6 20.9083 15.6 21.175C15.6 21.4417 15.5 21.675 15.3 21.875C15.1 22.075 14.8625 22.175 14.5875 22.175C14.3125 22.175 14.075 22.075 13.875 21.875L11.7 19.7C11.5 19.5 11.4 19.2667 11.4 19C11.4 18.7333 11.5 18.5 11.7 18.3L13.875 16.125C14.075 15.925 14.3125 15.825 14.5875 15.825C14.8625 15.825 15.1 15.925 15.3 16.125C15.5 16.325 15.6 16.5583 15.6 16.825C15.6 17.0917 15.5 17.325 15.3 17.525L13.825 19ZM20.175 19L18.7 17.525C18.5 17.325 18.4 17.0917 18.4 16.825C18.4 16.5583 18.5 16.325 18.7 16.125C18.9 15.925 19.1375 15.825 19.4125 15.825C19.6875 15.825 19.925 15.925 20.125 16.125L22.3 18.3C22.5 18.5 22.6 18.7333 22.6 19C22.6 19.2667 22.5 19.5 22.3 19.7L20.125 21.875C19.925 22.075 19.6875 22.175 19.4125 22.175C19.1375 22.175 18.9 22.075 18.7 21.875C18.5 21.675 18.4 21.4417 18.4 21.175C18.4 20.9083 18.5 20.675 18.7 20.475L20.175 19Z" fill="#1C1B1F"/>
</g>
</svg>
