<svg width="24" height="24" viewBox="0 0 24 24" fill="none" xmlns="http://www.w3.org/2000/svg">
<mask id="mask0_654_4156" style="mask-type:alpha" maskUnits="userSpaceOnUse" x="0" y="0" width="24" height="24">
<rect width="24" height="24" fill="#D9D9D9"/>
</mask>
<g mask="url(#mask0_654_4156)">
<path d="M4.00144 12.025C4.00144 13.4417 4.3556 14.7583 5.06394 15.975C5.77227 17.1917 6.73477 18.1667 7.95144 18.9C8.18477 19.05 8.34727 19.2542 8.43894 19.5125C8.5306 19.7708 8.50977 20.0167 8.37644 20.25C8.2431 20.5 8.03894 20.6625 7.76394 20.7375C7.48894 20.8125 7.22644 20.7833 6.97644 20.65C5.42644 19.75 4.20977 18.5333 3.32644 17C2.4431 15.4667 2.00144 13.8083 2.00144 12.025C2.00144 11.5917 2.0306 11.1667 2.08894 10.75C2.14727 10.3333 2.22644 9.91667 2.32644 9.5L2.00144 9.7C1.7681 9.85 1.5181 9.8875 1.25144 9.8125C0.984771 9.7375 0.784771 9.58333 0.651438 9.35C0.518104 9.11667 0.488938 8.8625 0.563938 8.5875C0.638938 8.3125 0.793104 8.10833 1.02644 7.975L4.05144 6.225C4.28477 6.09167 4.53894 6.0625 4.81394 6.1375C5.08894 6.2125 5.2931 6.36667 5.42644 6.6L7.17644 9.6C7.30977 9.83333 7.33894 10.0875 7.26394 10.3625C7.18894 10.6375 7.03477 10.8417 6.80144 10.975C6.5681 11.1083 6.31394 11.1375 6.03894 11.0625C5.76394 10.9875 5.55977 10.8333 5.42644 10.6L4.57644 9.125C4.3931 9.59167 4.25144 10.0667 4.15144 10.55C4.05144 11.0333 4.00144 11.525 4.00144 12.025ZM12.0014 4C11.3181 4 10.6431 4.0875 9.97644 4.2625C9.30977 4.4375 8.67644 4.69167 8.07644 5.025C7.82644 5.15833 7.56394 5.20417 7.28894 5.1625C7.01394 5.12083 6.80977 4.98333 6.67644 4.75C6.52644 4.48333 6.4931 4.2125 6.57644 3.9375C6.65977 3.6625 6.83477 3.45 7.10144 3.3C7.85144 2.86667 8.63894 2.54167 9.46394 2.325C10.2889 2.10833 11.1348 2 12.0014 2C13.3181 2 14.5806 2.24583 15.7889 2.7375C16.9973 3.22917 18.0764 3.94167 19.0264 4.875V4.5C19.0264 4.21667 19.1223 3.97917 19.3139 3.7875C19.5056 3.59583 19.7431 3.5 20.0264 3.5C20.3098 3.5 20.5473 3.59583 20.7389 3.7875C20.9306 3.97917 21.0264 4.21667 21.0264 4.5V8C21.0264 8.28333 20.9306 8.52083 20.7389 8.7125C20.5473 8.90417 20.3098 9 20.0264 9H16.5264C16.2431 9 16.0056 8.90417 15.8139 8.7125C15.6223 8.52083 15.5264 8.28333 15.5264 8C15.5264 7.71667 15.6223 7.47917 15.8139 7.2875C16.0056 7.09583 16.2431 7 16.5264 7H18.2514C17.4848 6.05 16.5598 5.3125 15.4764 4.7875C14.3931 4.2625 13.2348 4 12.0014 4ZM18.0514 17.275C18.6848 16.5417 19.1681 15.7333 19.5014 14.85C19.8348 13.9667 20.0014 13.0417 20.0014 12.075C20.0014 11.7917 20.0973 11.5417 20.2889 11.325C20.4806 11.1083 20.7181 11 21.0014 11C21.2848 11 21.5223 11.1083 21.7139 11.325C21.9056 11.5417 22.0014 11.7917 22.0014 12.075C22.0014 13.1583 21.8306 14.2042 21.4889 15.2125C21.1473 16.2208 20.6514 17.1583 20.0014 18.025C19.3514 18.8917 18.5806 19.6333 17.6889 20.25C16.7973 20.8667 15.8264 21.325 14.7764 21.625L15.0264 21.775C15.2598 21.9083 15.4098 22.1125 15.4764 22.3875C15.5431 22.6625 15.5098 22.9167 15.3764 23.15C15.2431 23.3833 15.0431 23.5333 14.7764 23.6C14.5098 23.6667 14.2598 23.6333 14.0264 23.5L10.9764 21.75C10.7431 21.6167 10.5889 21.4125 10.5139 21.1375C10.4389 20.8625 10.4681 20.6083 10.6014 20.375L12.3514 17.35C12.4848 17.1167 12.6848 16.9667 12.9514 16.9C13.2181 16.8333 13.4681 16.8667 13.7014 17C13.9348 17.1333 14.0889 17.3375 14.1639 17.6125C14.2389 17.8875 14.2098 18.1417 14.0764 18.375L13.1514 19.95C14.1014 19.8167 14.9973 19.5208 15.8389 19.0625C16.6806 18.6042 17.4181 18.0083 18.0514 17.275Z" fill="#1C1B1F"/>
</g>
</svg>
