<svg width="24" height="25" viewBox="0 0 24 25" fill="none" xmlns="http://www.w3.org/2000/svg">
<mask id="mask0_654_4204" style="mask-type:alpha" maskUnits="userSpaceOnUse" x="0" y="0" width="24" height="25">
<rect y="0.75" width="24" height="24" fill="#D9D9D9"/>
</mask>
<g mask="url(#mask0_654_4204)">
<path d="M7 21.75C6.45 21.75 5.97917 21.5542 5.5875 21.1625C5.19583 20.7708 5 20.3 5 19.75V6.75C4.71667 6.75 4.47917 6.65417 4.2875 6.4625C4.09583 6.27083 4 6.03333 4 5.75C4 5.46667 4.09583 5.22917 4.2875 5.0375C4.47917 4.84583 4.71667 4.75 5 4.75H9C9 4.46667 9.09583 4.22917 9.2875 4.0375C9.47917 3.84583 9.71667 3.75 10 3.75H14C14.2833 3.75 14.5208 3.84583 14.7125 4.0375C14.9042 4.22917 15 4.46667 15 4.75H19C19.2833 4.75 19.5208 4.84583 19.7125 5.0375C19.9042 5.22917 20 5.46667 20 5.75C20 6.03333 19.9042 6.27083 19.7125 6.4625C19.5208 6.65417 19.2833 6.75 19 6.75V19.75C19 20.3 18.8042 20.7708 18.4125 21.1625C18.0208 21.5542 17.55 21.75 17 21.75H7ZM17 6.75H7V19.75H17V6.75ZM10 17.75C10.2833 17.75 10.5208 17.6542 10.7125 17.4625C10.9042 17.2708 11 17.0333 11 16.75V9.75C11 9.46667 10.9042 9.22917 10.7125 9.0375C10.5208 8.84583 10.2833 8.75 10 8.75C9.71667 8.75 9.47917 8.84583 9.2875 9.0375C9.09583 9.22917 9 9.46667 9 9.75V16.75C9 17.0333 9.09583 17.2708 9.2875 17.4625C9.47917 17.6542 9.71667 17.75 10 17.75ZM14 17.75C14.2833 17.75 14.5208 17.6542 14.7125 17.4625C14.9042 17.2708 15 17.0333 15 16.75V9.75C15 9.46667 14.9042 9.22917 14.7125 9.0375C14.5208 8.84583 14.2833 8.75 14 8.75C13.7167 8.75 13.4792 8.84583 13.2875 9.0375C13.0958 9.22917 13 9.46667 13 9.75V16.75C13 17.0333 13.0958 17.2708 13.2875 17.4625C13.4792 17.6542 13.7167 17.75 14 17.75Z" fill="#1C1B1F"/>
</g>
</svg>
