<svg width="24" height="25" viewBox="0 0 24 25" fill="none" xmlns="http://www.w3.org/2000/svg">
<mask id="mask0_654_4230" style="mask-type:alpha" maskUnits="userSpaceOnUse" x="0" y="0" width="24" height="25">
<rect y="0.75" width="24" height="24" fill="#D9D9D9"/>
</mask>
<g mask="url(#mask0_654_4230)">
<path d="M7 23.75C6.45 23.75 5.97917 23.5542 5.5875 23.1625C5.19583 22.7708 5 22.3 5 21.75V3.75C5 3.2 5.19583 2.72917 5.5875 2.3375C5.97917 1.94583 6.45 1.75 7 1.75H17C17.55 1.75 18.0208 1.94583 18.4125 2.3375C18.8042 2.72917 19 3.2 19 3.75V6.85C19.3 6.96667 19.5417 7.15 19.725 7.4C19.9083 7.65 20 7.93333 20 8.25V10.25C20 10.5667 19.9083 10.85 19.725 11.1C19.5417 11.35 19.3 11.5333 19 11.65V21.75C19 22.3 18.8042 22.7708 18.4125 23.1625C18.0208 23.5542 17.55 23.75 17 23.75H7ZM7 21.75H17V3.75H7V21.75ZM12 20.75C12.2833 20.75 12.5208 20.6542 12.7125 20.4625C12.9042 20.2708 13 20.0333 13 19.75C13 19.4667 12.9042 19.2292 12.7125 19.0375C12.5208 18.8458 12.2833 18.75 12 18.75C11.7167 18.75 11.4792 18.8458 11.2875 19.0375C11.0958 19.2292 11 19.4667 11 19.75C11 20.0333 11.0958 20.2708 11.2875 20.4625C11.4792 20.6542 11.7167 20.75 12 20.75Z" fill="#1C1B1F"/>
</g>
</svg>
